<?xml version="1.0" encoding="UTF-8" standalone="no"?>
<!-- Created with Inkscape (http://www.inkscape.org/) -->

<svg
   width="254.26476mm"
   height="214.98822mm"
   viewBox="0 0 254.26476 214.98822"
   version="1.1"
   id="svg5"
   xml:space="preserve"
   inkscape:version="1.2.2 (b0a8486541, 2022-12-01)"
   sodipodi:docname="Logo_LOUCA-2023.svg"
   xmlns:inkscape="http://www.inkscape.org/namespaces/inkscape"
   xmlns:sodipodi="http://sodipodi.sourceforge.net/DTD/sodipodi-0.dtd"
   xmlns="http://www.w3.org/2000/svg"
   xmlns:svg="http://www.w3.org/2000/svg"><sodipodi:namedview
     id="namedview7"
     pagecolor="#ffffff"
     bordercolor="#000000"
     borderopacity="0.25"
     inkscape:showpageshadow="2"
     inkscape:pageopacity="0.0"
     inkscape:pagecheckerboard="0"
     inkscape:deskcolor="#d1d1d1"
     inkscape:document-units="mm"
     showgrid="false"
     inkscape:zoom="0.25"
     inkscape:cx="954"
     inkscape:cy="258"
     inkscape:window-width="1920"
     inkscape:window-height="1044"
     inkscape:window-x="0"
     inkscape:window-y="0"
     inkscape:window-maximized="1"
     inkscape:current-layer="svg5"
     showguides="false"><sodipodi:guide
       position="867.12516,1860.5169"
       orientation="0,-1"
       id="guide16075"
       inkscape:locked="false" /><sodipodi:guide
       position="862.72707,1850.1579"
       orientation="0,-1"
       id="guide16077"
       inkscape:locked="false" /><sodipodi:guide
       position="868.21336,1847.8087"
       orientation="0,-1"
       id="guide16083"
       inkscape:locked="false" /><sodipodi:guide
       position="843.02969,1850.0501"
       orientation="1,0"
       id="guide16085"
       inkscape:locked="false" /><sodipodi:guide
       position="852.25871,1850.0501"
       orientation="1,0"
       id="guide16087"
       inkscape:locked="false" /><sodipodi:guide
       position="867.85817,1837.5285"
       orientation="0,-1"
       id="guide16089"
       inkscape:locked="false" /><sodipodi:guide
       position="1178.0593,1697.3586"
       orientation="1,0"
       id="guide29427"
       inkscape:locked="false" /><sodipodi:guide
       position="1812.5908,1249.9911"
       orientation="0,-1"
       id="guide19218"
       inkscape:locked="false" /><sodipodi:guide
       position="1814.9279,1262.3696"
       orientation="0,-1"
       id="guide19220"
       inkscape:locked="false" /><sodipodi:guide
       position="1821.0631,1247.6599"
       orientation="0,-1"
       id="guide23333"
       inkscape:locked="false" /><sodipodi:guide
       position="1812.7188,1237.7194"
       orientation="0,-1"
       id="guide23335"
       inkscape:locked="false" /><sodipodi:guide
       position="360.4233,-415.35195"
       orientation="1,0"
       id="guide5445"
       inkscape:locked="false" /></sodipodi:namedview><defs
     id="defs2"><style
       id="style182">
      .cls-1 {
        fill: none;
      }

      .cls-2 {
        fill: #e95420;
      }

      .cls-3 {
        fill: #fff;
      }
    </style></defs><g
     id="LibreOffice_Conf_Asia"
     transform="translate(-4.2766555e-5,-3.8146973e-5)"><rect
       style="font-variation-settings:normal;opacity:1;vector-effect:none;fill:#ffffff;fill-opacity:1;stroke:none;stroke-width:2.81822;stroke-linecap:round;stroke-linejoin:round;stroke-miterlimit:4;stroke-dasharray:none;stroke-dashoffset:0;stroke-opacity:1;-inkscape-stroke:none;paint-order:markers fill stroke;stop-color:#000000;stop-opacity:1"
       id="rect11461"
       width="127.13239"
       height="214.9882"
       x="4.2766555e-05"
       y="3.8146973e-05"
       rx="0"
       ry="0"
       inkscape:export-filename="draft-LO-2.png"
       inkscape:export-xdpi="100"
       inkscape:export-ydpi="100" /><rect
       style="font-variation-settings:normal;opacity:1;vector-effect:none;fill:#18a303;fill-opacity:1;stroke:none;stroke-width:2.81822;stroke-linecap:round;stroke-linejoin:round;stroke-miterlimit:4;stroke-dasharray:none;stroke-dashoffset:0;stroke-opacity:1;-inkscape-stroke:none;paint-order:markers fill stroke;stop-color:#000000;stop-opacity:1"
       id="rect11463"
       width="127.13239"
       height="214.9882"
       x="127.1324"
       y="3.8146973e-05"
       rx="0"
       ry="0" /><g
       id="g6575"
       transform="matrix(1.1309487,0,0,1.1309487,-8.323914,35.60405)"><g
         id="g11487"
         transform="matrix(1.4945203,0,0,1.4945203,-491.91997,-1536.4607)"
         style="fill:#18a303;fill-opacity:1"><path
           id="path11465"
           style="color:#000000;fill:#18a303;fill-opacity:1;stroke-linecap:round;stroke-linejoin:round;-inkscape-stroke:none;paint-order:markers fill stroke"
           d="m 390.89531,1064.5668 a 5.3004527,5.3004527 0 0 0 -5.30026,5.3003 h -35.67123 a 0.72504503,0.72504503 0 0 0 -0.7246,0.7246 0.72504503,0.72504503 0 0 0 0.7246,0.7267 h 35.87516 a 5.3004527,5.3004527 0 0 0 5.09633,3.8496 5.3004527,5.3004527 0 0 0 5.30056,-5.3006 5.3004527,5.3004527 0 0 0 -5.30056,-5.3006 z m -1.16608,2.0631 c 0.009,-10e-5 0.0173,0 0.026,0 0.67791,0 0.97774,0.3866 0.97774,0.8298 0,0.3998 -0.24358,0.7433 -0.65642,1.13 l -0.52128,0.491 h 1.14285 v 0.4868 h -1.82953 v -0.4476 l 0.76923,-0.7821 c 0.31288,-0.3216 0.47787,-0.5695 0.47787,-0.7998 0,-0.2868 -0.16077,-0.4216 -0.46931,-0.4216 -0.18686,0 -0.404,0.083 -0.59955,0.2608 l -0.0263,-0.517 c 0.2147,-0.1517 0.44188,-0.2258 0.7087,-0.2303 z m 2.21262,0 c 0.009,-2e-4 0.0172,0 0.026,0 0.56058,0 1.0126,0.3779 1.0126,1.4991 0,1.1211 -0.45202,1.4993 -1.0126,1.4993 -0.56058,0 -1.01229,-0.3782 -1.01229,-1.4993 0,-1.1037 0.4379,-1.4873 0.98631,-1.4991 z m 0.026,0.4865 c -0.28246,0 -0.39531,0.3738 -0.39531,1.0126 0,0.6388 0.11285,1.0126 0.39531,1.0126 0.28246,0 0.39563,-0.3738 0.39563,-1.0126 0,-0.6388 -0.11317,-1.0126 -0.39563,-1.0126 z m -2.27101,2.9898 c 0.67792,0 0.97775,0.3868 0.97775,0.8301 0,0.3997 -0.24328,0.7432 -0.65612,1.13 l -0.52158,0.491 h 1.14315 v 0.4867 h -1.82953 v -0.4476 l 0.76893,-0.7824 c 0.31288,-0.3216 0.47817,-0.5692 0.47817,-0.7995 0,-0.2868 -0.16077,-0.4216 -0.46931,-0.4216 -0.18686,0 -0.4043,0.083 -0.59985,0.2608 l -0.026,-0.517 c 0.22162,-0.1564 0.45626,-0.2305 0.73438,-0.2305 z m 2.08696,0 c 0.66922,0 0.98203,0.2956 0.98203,0.7258 0,0.3824 -0.35636,0.6342 -0.75181,0.6824 0.53451,0.048 0.77351,0.352 0.77351,0.7301 0,0.5127 -0.45615,0.8603 -1.16883,0.8603 -0.23466,0 -0.47823,-0.043 -0.67812,-0.1433 l 0.0434,-0.4999 c 0.22162,0.1042 0.4477,0.1565 0.66498,0.1565 0.32156,0 0.52159,-0.1389 0.52159,-0.3693 0,-0.2955 -0.24347,-0.4216 -0.78666,-0.4216 v -0.4519 c 0.53016,0 0.76495,-0.1913 0.76495,-0.439 0,-0.213 -0.16085,-0.3434 -0.46503,-0.3434 -0.19555,0 -0.42598,0.074 -0.58243,0.1914 l -0.0217,-0.5042 c 0.20859,-0.1176 0.45641,-0.1739 0.70411,-0.1739 z" /><path
           style="color:#000000;fill:#18a303;fill-opacity:1;stroke-linecap:round;stroke-linejoin:round;-inkscape-stroke:none;paint-order:markers fill stroke"
           d="m 364.28906,1067.2109 a 0.72504503,0.72504503 0 0 0 -0.72461,0.7246 v 2.6563 a 0.72504503,0.72504503 0 0 0 0.72461,0.7266 0.72504503,0.72504503 0 0 0 0.72461,-0.7266 v -2.6563 a 0.72504503,0.72504503 0 0 0 -0.72461,-0.7246 z"
           id="path11467" /><path
           style="color:#000000;fill:#18a303;fill-opacity:1;stroke-linecap:round;stroke-linejoin:round;-inkscape-stroke:none;paint-order:markers fill stroke"
           d="m 376.48047,1067.2109 a 0.72504503,0.72504503 0 0 0 -0.72461,0.7246 v 2.6563 a 0.72504503,0.72504503 0 0 0 0.72461,0.7266 0.72504503,0.72504503 0 0 0 0.72461,-0.7266 v -2.6563 a 0.72504503,0.72504503 0 0 0 -0.72461,-0.7246 z"
           id="path11469" /><path
           style="color:#000000;fill:#18a303;fill-opacity:1;stroke-linecap:round;stroke-linejoin:round;-inkscape-stroke:none;paint-order:markers fill stroke"
           d="m 361.00195,1062.9609 a 0.72511753,0.72511753 0 0 0 -0.72461,0.7266 l 0.0156,6.8574 a 0.72504503,0.72504503 0 0 0 0.72656,0.7227 0.72504503,0.72504503 0 0 0 0.72266,-0.7266 l -0.0137,-6.1308 h 17.27734 v 6.1328 a 0.72504503,0.72504503 0 0 0 0.72656,0.7246 0.72504503,0.72504503 0 0 0 0.72461,-0.7246 v -6.8575 a 0.72511753,0.72511753 0 0 0 -0.72461,-0.7246 z"
           id="path11471" /><path
           style="color:#000000;fill:#18a303;fill-opacity:1;stroke-linecap:round;stroke-linejoin:round;-inkscape-stroke:none;paint-order:markers fill stroke"
           d="m 370.36719,1065.1563 c -1.91642,0 -3.48242,1.566 -3.48242,3.4824 v 1.4004 a 0.72504503,0.72504503 0 0 0 0.72656,0.7246 0.72504503,0.72504503 0 0 0 0.72461,-0.7246 v -1.4004 c 0,-1.1381 0.89315,-2.0313 2.03125,-2.0313 1.1381,0 2.03125,0.8932 2.03125,2.0313 v 1.4004 a 0.72504503,0.72504503 0 0 0 0.72461,0.7246 0.72504503,0.72504503 0 0 0 0.72656,-0.7246 v -1.4004 c 0,-1.9164 -1.56601,-3.4824 -3.48242,-3.4824 z"
           id="path11473" /><path
           style="color:#000000;fill:#18a303;fill-opacity:1;stroke-linecap:round;stroke-linejoin:round;-inkscape-stroke:none;paint-order:markers fill stroke"
           d="m 370.00977,1050.6973 -6.66993,3.791 a 0.72511753,0.72511753 0 0 0 -0.30664,0.3437 l -2.65039,6.1778 -4.65234,1.9414 a 0.72504503,0.72504503 0 0 0 -0.38867,0.9492 0.72504503,0.72504503 0 0 0 0.94726,0.3887 l 4.92188,-2.0547 a 0.72511753,0.72511753 0 0 0 0.38672,-0.3828 l 2.67187,-6.2227 6.45508,-3.6699 a 0.72504503,0.72504503 0 0 0 0.27344,-0.9902 0.72504503,0.72504503 0 0 0 -0.98828,-0.2715 z"
           id="path11475" /><path
           style="color:#000000;fill:#18a303;fill-opacity:1;stroke-linecap:round;stroke-linejoin:round;-inkscape-stroke:none;paint-order:markers fill stroke"
           d="m 370.75781,1050.6973 a 0.72504503,0.72504503 0 0 0 -0.98828,0.2715 0.72504503,0.72504503 0 0 0 0.27344,0.9902 l 6.45508,3.6699 2.67187,6.2227 a 0.72511753,0.72511753 0 0 0 0.38672,0.3828 l 4.92188,2.0547 a 0.72504503,0.72504503 0 0 0 0.94726,-0.3887 0.72504503,0.72504503 0 0 0 -0.38867,-0.9492 l -4.65234,-1.9414 -2.6504,-6.1778 a 0.72511753,0.72511753 0 0 0 -0.30859,-0.3437 z"
           id="path11477" /><path
           style="color:#000000;fill:#18a303;fill-opacity:1;stroke-linecap:round;stroke-linejoin:round;-inkscape-stroke:none;paint-order:markers fill stroke"
           d="m 370.36719,1047.9375 a 0.72504503,0.72504503 0 0 0 -0.72461,0.7266 v 2.6562 a 0.72504503,0.72504503 0 0 0 0.72461,0.7246 0.72504503,0.72504503 0 0 0 0.72461,-0.7246 v -2.6562 a 0.72504503,0.72504503 0 0 0 -0.72461,-0.7266 z"
           id="path11479" /><path
           style="color:#000000;fill:#18a303;fill-opacity:1;stroke-linecap:round;stroke-linejoin:round;-inkscape-stroke:none;paint-order:markers fill stroke"
           d="m 370.00781,1056.418 -2.01758,1.1523 a 0.72511753,0.72511753 0 0 0 -0.36523,0.6328 l 0.0137,2.6192 a 0.72504503,0.72504503 0 0 0 0.73047,0.7207 0.72504503,0.72504503 0 0 0 0.7207,-0.7305 l -0.0117,-2.1934 1.28907,-0.7363 1.29297,0.7383 v 2.1973 a 0.72504503,0.72504503 0 0 0 0.72461,0.7246 0.72504503,0.72504503 0 0 0 0.7246,-0.7246 v -2.6192 a 0.72511753,0.72511753 0 0 0 -0.36523,-0.6289 l -2.01758,-1.1523 a 0.72511753,0.72511753 0 0 0 -0.71875,0 z"
           id="path11481" /><path
           style="color:#000000;fill:#18a303;fill-opacity:1;stroke-linecap:round;stroke-linejoin:round;-inkscape-stroke:none;paint-order:markers fill stroke"
           d="m 384.60742,1064.9395 c -0.53854,-0.015 -1.12519,0.1204 -1.59765,0.5293 -0.23749,0.2054 -0.43231,0.47 -0.54493,0.7871 -0.11329,0.3194 -0.1364,0.6729 -0.0391,1.0214 0.0946,0.3391 0.29336,0.6327 0.57227,0.8477 0.2728,0.2096 0.60835,0.3359 0.97656,0.3359 a 0.72504503,0.72504503 0 0 0 0.72461,-0.7246 0.72504503,0.72504503 0 0 0 -0.72461,-0.7246 c -0.0151,0 -0.0609,-0.014 -0.0918,-0.037 -0.0249,-0.019 -0.052,-0.059 -0.0605,-0.09 -0.009,-0.032 -0.008,-0.092 0.01,-0.1445 v 0 c 0.02,-0.055 0.0657,-0.1228 0.12695,-0.1757 0.12538,-0.1085 0.35753,-0.183 0.60938,-0.1758 0.23745,0.01 0.48126,0.076 0.6875,0.1972 0.20572,0.1208 0.38561,0.2989 0.50781,0.5039 0.12222,0.2051 0.19275,0.4489 0.20117,0.6875 0.008,0.2385 -0.0449,0.4862 -0.15234,0.6993 a 0.72504503,0.72504503 0 0 0 0.32031,0.9746 0.72504503,0.72504503 0 0 0 0.97461,-0.3223 c 0.21898,-0.4343 0.32382,-0.9162 0.30664,-1.4023 -0.0172,-0.4862 -0.15522,-0.9612 -0.40429,-1.3789 -0.24909,-0.418 -0.59998,-0.7655 -1.01954,-1.0118 -0.41849,-0.2457 -0.89418,-0.3827 -1.38086,-0.3964 z"
           id="path11483" /><path
           style="color:#000000;fill:#18a303;fill-opacity:1;stroke-linecap:round;stroke-linejoin:round;-inkscape-stroke:none;paint-order:markers fill stroke"
           d="m 356.71094,1064.9395 c -0.48735,0.013 -0.96182,0.1504 -1.38086,0.3964 -0.41956,0.2463 -0.77045,0.5938 -1.01953,1.0118 -0.24908,0.4177 -0.38908,0.8927 -0.40625,1.3789 -0.003,0.077 0.0455,0.1445 0.0488,0.2207 -0.51378,-0.1086 -1.00269,-0.3606 -1.52539,-0.2715 -0.69416,0.1188 -1.35038,0.4125 -1.90234,0.8515 -0.55169,0.4389 -0.98608,1.0117 -1.25781,1.6622 a 0.72504503,0.72504503 0 0 0 0.38867,0.9492 0.72504503,0.72504503 0 0 0 0.94922,-0.3887 c 0.17605,-0.4214 0.46479,-0.8035 0.82226,-1.0879 0.35721,-0.2841 0.79313,-0.4794 1.24414,-0.5566 0.61542,-0.1049 1.2851,0.015 1.82618,0.3261 a 0.72511753,0.72511753 0 0 0 1.00976,-0.955 c -0.10744,-0.2131 -0.16272,-0.4608 -0.15429,-0.6993 0.008,-0.2386 0.0809,-0.4824 0.20312,-0.6875 0.1222,-0.205 0.30209,-0.3831 0.50781,-0.5039 0.20624,-0.1211 0.45005,-0.1907 0.6875,-0.1972 0.25186,-0.01 0.48401,0.067 0.60938,0.1758 0.0617,0.053 0.10522,0.122 0.125,0.1777 0.0182,0.053 0.0187,0.1125 0.01,0.1445 -0.009,0.031 -0.0337,0.071 -0.0586,0.09 -0.031,0.024 -0.0764,0.037 -0.0918,0.037 a 0.72504503,0.72504503 0 0 0 -0.72461,0.7246 0.72504503,0.72504503 0 0 0 0.72461,0.7246 c 0.36821,0 0.70181,-0.1263 0.97461,-0.3359 a 0.72511753,0.72511753 0 0 0 0.002,0 c 0.27891,-0.215 0.47769,-0.5086 0.57226,-0.8477 0.0973,-0.3485 0.0723,-0.702 -0.041,-1.0214 -0.11262,-0.3171 -0.30549,-0.5817 -0.54297,-0.7871 -0.47299,-0.4094 -1.06059,-0.5447 -1.59961,-0.5293 z"
           id="path11485" /></g><g
         aria-label="LibreOffice Conf.Asia "
         id="text11499"
         style="font-weight:bold;font-size:16.3915px;line-height:0.9;font-family:Vegur;-inkscape-font-specification:'Vegur Bold';text-align:center;letter-spacing:-0.439064px;text-anchor:middle;fill:#18a303;stroke-width:3.09586;stroke-linecap:round;stroke-linejoin:round;paint-order:markers fill stroke;stop-color:#000000"
         transform="translate(-130.80858,-1370.0555)"><path
           d="m 160.49729,1449.3576 v -9.4415 h -2.16367 v 11.2774 h 6.9336 v -1.8359 z"
           id="path11700" /><path
           d="m 167.07379,1440.1784 c -0.68845,0 -1.24576,0.5081 -1.24576,1.1474 0,0.6393 0.55731,1.1474 1.24576,1.1474 0.68844,0 1.24575,-0.5081 1.24575,-1.1474 0,-0.6393 -0.55731,-1.1474 -1.24575,-1.1474 z m -1.08184,11.0151 h 2.16368 v -7.9007 h -2.16368 z"
           id="path11702" /><path
           d="m 171.71608,1439.1457 h -2.16368 v 12.0478 h 1.81946 l 0.16391,-1.3441 c 0.34422,0.9507 1.27854,1.508 2.37677,1.508 2.08172,0 3.57335,-1.59 3.57335,-4.229 0,-2.262 -1.24576,-3.9995 -3.2783,-3.9995 -1.08184,0 -1.96698,0.4261 -2.49151,1.3605 z m 0,7.8188 c 0,-1.2786 0.7704,-2.0326 1.65554,-2.0326 1.32771,0 1.88502,1.0491 1.88502,2.3604 0,1.59 -0.754,2.4096 -1.78667,2.4096 -0.86875,0 -1.75389,-0.7704 -1.75389,-1.967 z"
           id="path11704" /><path
           d="m 180.27594,1443.2928 h -1.81945 v 7.9007 h 2.16368 v -3.8684 c 0,-1.3277 0.50813,-2.2948 1.52441,-2.2948 0.39339,0 0.63926,0.033 0.90153,0.1475 l 0.082,-1.9178 c -0.18031,-0.082 -0.50814,-0.1311 -0.7868,-0.1311 -0.75401,0 -1.62275,0.5901 -1.90141,1.4916 z"
           id="path11706" /><path
           d="m 189.70454,1449.1445 c -0.5901,0.3115 -1.29493,0.4918 -2.16368,0.4918 -1.18019,0 -1.91781,-0.5573 -2.03255,-1.6064 h 4.80271 c 0.0492,-0.2622 0.082,-0.6392 0.082,-0.9179 0,-2.1637 -0.98349,-3.9831 -3.24552,-3.9831 -2.1145,0 -3.70448,1.6719 -3.70448,4.3601 0,2.5899 1.50802,3.8684 3.6717,3.8684 1.21297,0 2.1145,-0.2295 2.73738,-0.5737 z m -4.17983,-2.6718 c 0.13113,-1.0818 0.73761,-1.6719 1.5244,-1.6719 0.99989,0 1.37689,0.754 1.37689,1.6719 z"
           id="path11708" /><path
           d="m 196.14988,1439.7522 c -3.0816,0 -5.21249,2.2456 -5.21249,5.8026 0,3.557 2.13089,5.8026 5.21249,5.8026 3.08161,0 5.2125,-2.2456 5.2125,-5.8026 0,-3.557 -2.13089,-5.8026 -5.2125,-5.8026 z m 0,1.1802 c 1.98338,0 3.70448,1.508 3.70448,4.6224 0,3.1144 -1.7211,4.6224 -3.70448,4.6224 -1.98337,0 -3.70447,-1.508 -3.70447,-4.6224 0,-3.1144 1.7211,-4.6224 3.70447,-4.6224 z"
           style="font-weight:normal;-inkscape-font-specification:Vegur"
           id="path11710" /><path
           d="m 203.03779,1443.4239 h -1.09823 v 1.0491 h 1.09823 v 6.7205 h 1.3441 v -6.7205 h 1.98338 v -1.0491 h -1.98338 v -0.9179 c 0,-1.6719 0.88514,-2.4096 1.85224,-2.4096 0.45897,0 0.73762,0.066 0.99988,0.164 l 0.082,-1.1147 c -0.26226,-0.098 -0.65566,-0.1639 -1.09823,-0.1639 -1.95059,0 -3.17995,1.2949 -3.17995,3.7045 z"
           style="font-weight:normal;-inkscape-font-specification:Vegur"
           id="path11712" /><path
           d="m 213.25318,1443.4239 h -4.26179 v -0.4098 c 0,-1.7047 0.72123,-2.9177 2.24564,-2.9177 0.65566,0 1.22936,0.1476 1.68832,0.459 l 0.13113,-1.1474 c -0.32783,-0.2295 -0.99988,-0.4262 -1.68832,-0.4262 -2.21285,0 -3.72087,1.3277 -3.72087,4.2126 v 0.2295 h -1.09823 v 1.0491 h 1.09823 v 6.7205 h 1.3441 v -6.7205 h 2.91769 v 6.7205 h 1.3441 z"
           style="font-weight:normal;-inkscape-font-specification:Vegur"
           id="path11714" /><path
           d="m 219.89874,1449.8822 c -0.49175,0.2458 -1.09823,0.3934 -1.65554,0.3934 -1.65554,0 -2.62264,-1.0491 -2.62264,-2.9997 0,-2.0161 1.1474,-2.9668 2.60625,-2.9668 0.68844,0 1.27853,0.1639 1.75389,0.4261 l 0.11474,-1.1802 c -0.44257,-0.213 -1.13102,-0.3606 -1.91781,-0.3606 -2.1145,0 -4.03231,1.4425 -4.03231,4.1799 0,2.721 1.67194,3.9831 3.80283,3.9831 0.80318,0 1.52441,-0.1639 2.06533,-0.377 z"
           style="font-weight:normal;-inkscape-font-specification:Vegur"
           id="path11716" /><path
           d="m 226.62274,1449.7019 c -0.55732,0.3442 -1.29493,0.5737 -1.98338,0.5737 -1.57358,0 -2.39315,-0.7704 -2.47511,-2.5407 h 4.90106 c 0.0492,-0.2623 0.0656,-0.4262 0.0656,-0.6721 0,-2.1309 -0.83596,-3.8684 -2.86851,-3.8684 -2.1145,0 -3.50778,1.672 -3.50778,4.2946 0,2.5571 1.39328,3.8684 3.55695,3.8684 0.91793,0 1.78668,-0.2131 2.37677,-0.5409 z m -4.42571,-3.0653 c 0.11474,-1.3768 0.83597,-2.2948 1.91781,-2.2948 1.19658,0 1.65554,1.0163 1.65554,2.2948 z"
           style="font-weight:normal;-inkscape-font-specification:Vegur"
           id="path11718" /><path
           d="m 167.50504,1464.6475 c -1.07308,0.5456 -2.01884,0.8002 -3.14647,0.8002 -2.41897,0 -4.03767,-1.7096 -4.03767,-4.6197 0,-2.8372 1.89152,-4.3286 4.09223,-4.3286 1.30951,0 2.38259,0.3092 3.21922,0.7639 l 0.23644,-2.0734 c -0.74569,-0.4365 -1.87333,-0.7276 -3.45566,-0.7276 -3.56479,0 -6.67489,2.2735 -6.67489,6.5658 0,4.2377 2.58266,6.4566 6.25657,6.4566 1.3277,0 2.67359,-0.2364 3.69211,-0.782 z"
           style="font-size:18.1877px"
           id="path11720" /><path
           d="m 172.70413,1458.2818 c -2.43715,0 -4.38323,1.6187 -4.38323,4.5651 0,2.9282 1.94608,4.5651 4.38323,4.5651 2.43715,0 4.38324,-1.6369 4.38324,-4.5651 0,-2.9464 -1.94609,-4.5651 -4.38324,-4.5651 z m 0,1.8551 c 1.10945,0 1.85515,0.9094 1.85515,2.71 0,1.7824 -0.7457,2.7099 -1.85515,2.7099 -1.10945,0 -1.85514,-0.9275 -1.85514,-2.7099 0,-1.8006 0.74569,-2.71 1.85514,-2.71 z"
           style="font-size:18.1877px"
           id="path11722" /><path
           d="m 180.23128,1458.4636 h -2.01884 v 8.7665 h 2.40078 v -4.5105 c 0,-1.3823 0.58201,-2.2917 1.58233,-2.2917 1.01851,0 1.52777,0.7821 1.52777,1.9097 v 4.8925 h 2.40077 v -5.8564 c 0,-1.7824 -1.16401,-3.0919 -3.12828,-3.0919 -1.1822,0 -2.18252,0.582 -2.56447,1.8369 z"
           style="font-size:18.1877px"
           id="path11724" /><path
           d="m 188.08579,1458.5364 h -1.21857 v 1.8915 h 1.21857 v 6.8022 h 2.40078 v -6.8022 h 2.38259 v -1.8915 h -2.38259 v -0.7093 c 0,-1.3095 0.74569,-2.1462 1.9279,-2.1462 0.50925,0 0.96394,0.073 1.30951,0.2183 l 0.16369,-1.9825 c -0.36375,-0.1455 -0.94576,-0.2364 -1.49139,-0.2364 -2.41897,0 -4.31049,1.4368 -4.31049,4.3468 z"
           style="font-size:18.1877px"
           id="path11726" /><path
           d="m 194.39436,1464.6475 c -0.76389,0 -1.38227,0.6183 -1.38227,1.3822 0,0.7639 0.61838,1.3823 1.38227,1.3823 0.76388,0 1.38226,-0.6184 1.38226,-1.3823 0,-0.7639 -0.61838,-1.3822 -1.38226,-1.3822 z"
           style="font-size:18.1877px"
           id="path11728" /><path
           d="m 205.18617,1463.4834 1.12764,3.7467 h 2.6554 l -4.25592,-12.5131 h -2.87366 l -4.25592,12.5131 h 2.58265 l 1.12764,-3.7467 z m -0.61838,-2.037 h -2.65541 l 1.32771,-4.4196 z"
           style="font-size:18.1877px"
           id="path11730" /><path
           d="m 209.23946,1466.9391 c 0.65475,0.3092 1.52776,0.4729 2.29165,0.4729 2.03702,0 3.67391,-1.0913 3.67391,-2.8737 0,-1.3095 -0.65476,-2.1461 -2.3644,-2.5462 -0.60019,-0.1455 -0.98214,-0.4365 -0.98214,-0.9276 0,-0.5456 0.52745,-0.8548 1.25496,-0.8548 0.65475,0 1.23676,0.1455 1.78239,0.4365 l 0.1455,-1.9643 c -0.50925,-0.2183 -1.20039,-0.3819 -2.20071,-0.3819 -1.78239,0 -3.41929,0.9821 -3.41929,2.8918 0,1.3641 0.67295,2.1643 2.2189,2.5645 0.7457,0.2 1.14583,0.4547 1.14583,0.9275 0,0.4911 -0.47288,0.8003 -1.25495,0.8003 -0.65476,0 -1.34589,-0.1091 -2.10978,-0.4547 z"
           style="font-size:18.1877px"
           id="path11732" /><path
           d="m 217.49409,1455.008 c -0.76388,0 -1.38226,0.5638 -1.38226,1.2731 0,0.7093 0.61838,1.2732 1.38226,1.2732 0.76388,0 1.38227,-0.5639 1.38227,-1.2732 0,-0.7093 -0.61839,-1.2731 -1.38227,-1.2731 z m -1.20039,12.2221 h 2.40078 v -8.7665 h -2.40078 z"
           style="font-size:18.1877px"
           id="path11734" /><path
           d="m 220.61981,1461.0281 c 0.70932,-0.4547 1.72783,-0.6729 2.43715,-0.6729 1.14582,0 1.63689,0.5456 1.63689,1.4004 v 0.2001 c -0.21825,-0.018 -0.49107,-0.036 -0.83663,-0.036 -2.29165,0 -3.98311,1.0367 -3.98311,2.91 0,1.6187 1.05489,2.5827 2.63722,2.5827 1.16401,0 1.87333,-0.3456 2.38259,-1.2913 l 0.18187,1.1094 h 2.01884 v -5.6564 c 0,-2.0006 -1.05489,-3.2919 -3.67392,-3.2919 -1.01851,0 -2.20071,0.2546 -2.9464,0.7093 z m 4.07404,2.8919 c 0,1.0185 -0.60019,1.7642 -1.30951,1.7642 -0.65476,0 -1.09126,-0.4184 -1.09126,-1.0186 0,-0.782 0.67294,-1.2731 1.69145,-1.2731 0.23644,0 0.49107,0.018 0.70932,0.036 z"
           style="font-size:18.1877px"
           id="path11736" /></g><g
         aria-label="20 23"
         id="text11507"
         style="font-weight:bold;font-size:6.49459px;line-height:0.8;font-family:Vegur;-inkscape-font-specification:'Vegur Bold';text-align:center;letter-spacing:-0.173964px;text-anchor:middle;fill:#ffffff;stroke-width:1.22662;stroke-linecap:round;stroke-linejoin:round;paint-order:markers fill stroke;stop-color:#000000"
         transform="translate(-130.80858,-1370.0555)" /></g><g
       id="g8610"
       transform="matrix(1.1309487,0,0,1.1309487,123.19704,35.60405)"
       style="fill:#ffffff;fill-opacity:1"><g
         id="g8556"
         transform="matrix(1.4945203,0,0,1.4945203,-491.91997,-1536.4607)"
         style="fill:#ffffff;fill-opacity:1"><path
           id="path8534"
           style="color:#000000;fill:#ffffff;fill-opacity:1;stroke-linecap:round;stroke-linejoin:round;-inkscape-stroke:none;paint-order:markers fill stroke"
           d="m 390.89544,1064.5668 a 5.3004527,5.3004527 0 0 0 -5.30056,5.3003 h -35.67093 a 0.72504503,0.72504503 0 0 0 -0.7246,0.7246 0.72504503,0.72504503 0 0 0 0.7246,0.7267 h 35.87516 a 5.3004527,5.3004527 0 0 0 5.09633,3.8496 5.3004527,5.3004527 0 0 0 5.30056,-5.3006 5.3004527,5.3004527 0 0 0 -5.30056,-5.3006 z m -1.16639,2.0631 c 0.009,-10e-5 0.0173,0 0.026,0 0.67791,0 0.97774,0.3866 0.97774,0.8298 0,0.3998 -0.24327,0.7433 -0.65611,1.13 l -0.52158,0.491 h 1.14284 v 0.4868 h -1.82922 v -0.4476 l 0.76892,-0.7821 c 0.31289,-0.3216 0.47818,-0.5695 0.47818,-0.7998 0,-0.2868 -0.16077,-0.4216 -0.46931,-0.4216 -0.18686,0 -0.40431,0.083 -0.59985,0.2608 l -0.026,-0.517 c 0.2147,-0.1517 0.44157,-0.2258 0.70839,-0.2303 z m 2.21262,0 c 0.009,-2e-4 0.0175,0 0.0263,0 0.56058,0 1.0126,0.3779 1.0126,1.4991 0,1.1211 -0.45202,1.4993 -1.0126,1.4993 -0.56058,0 -1.0126,-0.3782 -1.0126,-1.4993 0,-1.1037 0.43791,-1.4873 0.98631,-1.4991 z m 0.0263,0.4865 c -0.28246,0 -0.39562,0.3738 -0.39562,1.0126 0,0.6388 0.11316,1.0126 0.39562,1.0126 0.28246,0 0.39532,-0.3738 0.39532,-1.0126 0,-0.6388 -0.11286,-1.0126 -0.39532,-1.0126 z m -2.27101,2.9898 c 0.67791,0 0.97774,0.3868 0.97774,0.8301 0,0.3997 -0.24327,0.7432 -0.65611,1.13 l -0.52158,0.491 h 1.14284 v 0.4867 h -1.82953 v -0.4476 l 0.76923,-0.7824 c 0.31289,-0.3216 0.47787,-0.5692 0.47787,-0.7995 0,-0.2868 -0.16077,-0.4216 -0.4693,-0.4216 -0.18687,0 -0.404,0.083 -0.59955,0.2608 l -0.026,-0.517 c 0.22162,-0.1564 0.45626,-0.2305 0.73438,-0.2305 z m 2.08665,0 c 0.66923,0 0.98233,0.2956 0.98233,0.7258 0,0.3824 -0.35635,0.6342 -0.7518,0.6824 0.53451,0.048 0.77351,0.352 0.77351,0.7301 0,0.5127 -0.45646,0.8603 -1.16914,0.8603 -0.23466,0 -0.47792,-0.043 -0.67781,-0.1433 l 0.0434,-0.4999 c 0.22162,0.1042 0.4477,0.1565 0.66498,0.1565 0.32157,0 0.52128,-0.1389 0.52128,-0.3693 0,-0.2955 -0.24316,-0.4216 -0.78636,-0.4216 v -0.4519 c 0.53017,0 0.76465,-0.1913 0.76465,-0.439 0,-0.213 -0.16083,-0.3434 -0.46502,-0.3434 -0.19556,0 -0.42568,0.074 -0.58213,0.1914 l -0.0217,-0.5042 c 0.20858,-0.1176 0.4561,-0.1739 0.7038,-0.1739 z" /><path
           style="color:#000000;fill:#ffffff;fill-opacity:1;stroke-linecap:round;stroke-linejoin:round;-inkscape-stroke:none;paint-order:markers fill stroke"
           d="m 364.28906,1067.2109 a 0.72504503,0.72504503 0 0 0 -0.72461,0.7246 v 2.6563 a 0.72504503,0.72504503 0 0 0 0.72461,0.7266 0.72504503,0.72504503 0 0 0 0.72461,-0.7266 v -2.6563 a 0.72504503,0.72504503 0 0 0 -0.72461,-0.7246 z"
           id="path8536" /><path
           style="color:#000000;fill:#ffffff;fill-opacity:1;stroke-linecap:round;stroke-linejoin:round;-inkscape-stroke:none;paint-order:markers fill stroke"
           d="m 376.48047,1067.2109 a 0.72504503,0.72504503 0 0 0 -0.72461,0.7246 v 2.6563 a 0.72504503,0.72504503 0 0 0 0.72461,0.7266 0.72504503,0.72504503 0 0 0 0.72461,-0.7266 v -2.6563 a 0.72504503,0.72504503 0 0 0 -0.72461,-0.7246 z"
           id="path8538" /><path
           style="color:#000000;fill:#ffffff;fill-opacity:1;stroke-linecap:round;stroke-linejoin:round;-inkscape-stroke:none;paint-order:markers fill stroke"
           d="m 361.00195,1062.9609 a 0.72511753,0.72511753 0 0 0 -0.72461,0.7266 l 0.0156,6.8574 a 0.72504503,0.72504503 0 0 0 0.72656,0.7227 0.72504503,0.72504503 0 0 0 0.72266,-0.7266 l -0.0137,-6.1308 h 17.27734 v 6.1328 a 0.72504503,0.72504503 0 0 0 0.72656,0.7246 0.72504503,0.72504503 0 0 0 0.72461,-0.7246 v -6.8575 a 0.72511753,0.72511753 0 0 0 -0.72461,-0.7246 z"
           id="path8540" /><path
           style="color:#000000;fill:#ffffff;fill-opacity:1;stroke-linecap:round;stroke-linejoin:round;-inkscape-stroke:none;paint-order:markers fill stroke"
           d="m 370.36719,1065.1563 c -1.91642,0 -3.48242,1.566 -3.48242,3.4824 v 1.4004 a 0.72504503,0.72504503 0 0 0 0.72656,0.7246 0.72504503,0.72504503 0 0 0 0.72461,-0.7246 v -1.4004 c 0,-1.1381 0.89315,-2.0313 2.03125,-2.0313 1.1381,0 2.03125,0.8932 2.03125,2.0313 v 1.4004 a 0.72504503,0.72504503 0 0 0 0.72461,0.7246 0.72504503,0.72504503 0 0 0 0.72656,-0.7246 v -1.4004 c 0,-1.9164 -1.56601,-3.4824 -3.48242,-3.4824 z"
           id="path8542" /><path
           style="color:#000000;fill:#ffffff;fill-opacity:1;stroke-linecap:round;stroke-linejoin:round;-inkscape-stroke:none;paint-order:markers fill stroke"
           d="m 370.00977,1050.6973 -6.66993,3.791 a 0.72511753,0.72511753 0 0 0 -0.30664,0.3437 l -2.65039,6.1778 -4.65234,1.9414 a 0.72504503,0.72504503 0 0 0 -0.38867,0.9492 0.72504503,0.72504503 0 0 0 0.94726,0.3887 l 4.92188,-2.0547 a 0.72511753,0.72511753 0 0 0 0.38672,-0.3828 l 2.67187,-6.2227 6.45508,-3.6699 a 0.72504503,0.72504503 0 0 0 0.27344,-0.9902 0.72504503,0.72504503 0 0 0 -0.98828,-0.2715 z"
           id="path8544" /><path
           style="color:#000000;fill:#ffffff;fill-opacity:1;stroke-linecap:round;stroke-linejoin:round;-inkscape-stroke:none;paint-order:markers fill stroke"
           d="m 370.75781,1050.6973 a 0.72504503,0.72504503 0 0 0 -0.98828,0.2715 0.72504503,0.72504503 0 0 0 0.27344,0.9902 l 6.45508,3.6699 2.67187,6.2227 a 0.72511753,0.72511753 0 0 0 0.38672,0.3828 l 4.92188,2.0547 a 0.72504503,0.72504503 0 0 0 0.94726,-0.3887 0.72504503,0.72504503 0 0 0 -0.38867,-0.9492 l -4.65234,-1.9414 -2.6504,-6.1778 a 0.72511753,0.72511753 0 0 0 -0.30859,-0.3437 z"
           id="path8546" /><path
           style="color:#000000;fill:#ffffff;fill-opacity:1;stroke-linecap:round;stroke-linejoin:round;-inkscape-stroke:none;paint-order:markers fill stroke"
           d="m 370.36719,1047.9375 a 0.72504503,0.72504503 0 0 0 -0.72461,0.7266 v 2.6562 a 0.72504503,0.72504503 0 0 0 0.72461,0.7246 0.72504503,0.72504503 0 0 0 0.72461,-0.7246 v -2.6562 a 0.72504503,0.72504503 0 0 0 -0.72461,-0.7266 z"
           id="path8548" /><path
           style="color:#000000;fill:#ffffff;fill-opacity:1;stroke-linecap:round;stroke-linejoin:round;-inkscape-stroke:none;paint-order:markers fill stroke"
           d="m 370.00781,1056.418 -2.01758,1.1523 a 0.72511753,0.72511753 0 0 0 -0.36523,0.6328 l 0.0137,2.6192 a 0.72504503,0.72504503 0 0 0 0.73047,0.7207 0.72504503,0.72504503 0 0 0 0.7207,-0.7305 l -0.0117,-2.1934 1.28907,-0.7363 1.29297,0.7383 v 2.1973 a 0.72504503,0.72504503 0 0 0 0.72461,0.7246 0.72504503,0.72504503 0 0 0 0.7246,-0.7246 v -2.6192 a 0.72511753,0.72511753 0 0 0 -0.36523,-0.6289 l -2.01758,-1.1523 a 0.72511753,0.72511753 0 0 0 -0.71875,0 z"
           id="path8550" /><path
           style="color:#000000;fill:#ffffff;fill-opacity:1;stroke-linecap:round;stroke-linejoin:round;-inkscape-stroke:none;paint-order:markers fill stroke"
           d="m 384.60742,1064.9395 c -0.53854,-0.015 -1.12519,0.1204 -1.59765,0.5293 -0.23749,0.2054 -0.43231,0.47 -0.54493,0.7871 -0.11329,0.3194 -0.1364,0.6729 -0.0391,1.0214 0.0946,0.3391 0.29336,0.6327 0.57227,0.8477 0.2728,0.2096 0.60835,0.3359 0.97656,0.3359 a 0.72504503,0.72504503 0 0 0 0.72461,-0.7246 0.72504503,0.72504503 0 0 0 -0.72461,-0.7246 c -0.0151,0 -0.0609,-0.014 -0.0918,-0.037 -0.0249,-0.019 -0.052,-0.059 -0.0605,-0.09 -0.009,-0.032 -0.008,-0.092 0.01,-0.1445 v 0 c 0.02,-0.055 0.0657,-0.1228 0.12695,-0.1757 0.12538,-0.1085 0.35753,-0.183 0.60938,-0.1758 0.23745,0.01 0.48126,0.076 0.6875,0.1972 0.20572,0.1208 0.38561,0.2989 0.50781,0.5039 0.12222,0.2051 0.19275,0.4489 0.20117,0.6875 0.008,0.2385 -0.0449,0.4862 -0.15234,0.6993 a 0.72504503,0.72504503 0 0 0 0.32031,0.9746 0.72504503,0.72504503 0 0 0 0.97461,-0.3223 c 0.21898,-0.4343 0.32382,-0.9162 0.30664,-1.4023 -0.0172,-0.4862 -0.15522,-0.9612 -0.40429,-1.3789 -0.24909,-0.418 -0.59998,-0.7655 -1.01954,-1.0118 -0.41849,-0.2457 -0.89418,-0.3827 -1.38086,-0.3964 z"
           id="path8552" /><path
           style="color:#000000;fill:#ffffff;fill-opacity:1;stroke-linecap:round;stroke-linejoin:round;-inkscape-stroke:none;paint-order:markers fill stroke"
           d="m 356.71094,1064.9395 c -0.48735,0.013 -0.96182,0.1504 -1.38086,0.3964 -0.41956,0.2463 -0.77045,0.5938 -1.01953,1.0118 -0.24908,0.4177 -0.38908,0.8927 -0.40625,1.3789 -0.003,0.077 0.0455,0.1445 0.0488,0.2207 -0.51378,-0.1086 -1.00269,-0.3606 -1.52539,-0.2715 -0.69416,0.1188 -1.35038,0.4125 -1.90234,0.8515 -0.55169,0.4389 -0.98608,1.0117 -1.25781,1.6622 a 0.72504503,0.72504503 0 0 0 0.38867,0.9492 0.72504503,0.72504503 0 0 0 0.94922,-0.3887 c 0.17605,-0.4214 0.46479,-0.8035 0.82226,-1.0879 0.35721,-0.2841 0.79313,-0.4794 1.24414,-0.5566 0.61542,-0.1049 1.2851,0.015 1.82618,0.3261 a 0.72511753,0.72511753 0 0 0 1.00976,-0.955 c -0.10744,-0.2131 -0.16272,-0.4608 -0.15429,-0.6993 0.008,-0.2386 0.0809,-0.4824 0.20312,-0.6875 0.1222,-0.205 0.30209,-0.3831 0.50781,-0.5039 0.20624,-0.1211 0.45005,-0.1907 0.6875,-0.1972 0.25186,-0.01 0.48401,0.067 0.60938,0.1758 0.0617,0.053 0.10522,0.122 0.125,0.1777 0.0182,0.053 0.0187,0.1125 0.01,0.1445 -0.009,0.031 -0.0337,0.071 -0.0586,0.09 -0.031,0.024 -0.0764,0.037 -0.0918,0.037 a 0.72504503,0.72504503 0 0 0 -0.72461,0.7246 0.72504503,0.72504503 0 0 0 0.72461,0.7246 c 0.36821,0 0.70181,-0.1263 0.97461,-0.3359 a 0.72511753,0.72511753 0 0 0 0.002,0 c 0.27891,-0.215 0.47769,-0.5086 0.57226,-0.8477 0.0973,-0.3485 0.0723,-0.702 -0.041,-1.0214 -0.11262,-0.3171 -0.30549,-0.5817 -0.54297,-0.7871 -0.47299,-0.4094 -1.06059,-0.5447 -1.59961,-0.5293 z"
           id="path8554" /></g><g
         aria-label="LibreOffice Conf.Asia "
         id="g8596"
         style="font-weight:bold;font-size:16.3915px;line-height:0.9;font-family:Vegur;-inkscape-font-specification:'Vegur Bold';text-align:center;letter-spacing:-0.439064px;text-anchor:middle;fill:#ffffff;fill-opacity:1;stroke-width:3.09586;stroke-linecap:round;stroke-linejoin:round;paint-order:markers fill stroke;stop-color:#000000"
         transform="translate(-130.80858,-1370.0555)"><path
           d="m 160.49729,1449.3576 v -9.4415 h -2.16367 v 11.2774 h 6.9336 v -1.8359 z"
           id="path8558"
           style="fill:#ffffff;fill-opacity:1" /><path
           d="m 167.07379,1440.1784 c -0.68845,0 -1.24576,0.5081 -1.24576,1.1474 0,0.6393 0.55731,1.1474 1.24576,1.1474 0.68844,0 1.24575,-0.5081 1.24575,-1.1474 0,-0.6393 -0.55731,-1.1474 -1.24575,-1.1474 z m -1.08184,11.0151 h 2.16368 v -7.9007 h -2.16368 z"
           id="path8560"
           style="fill:#ffffff;fill-opacity:1" /><path
           d="m 171.71608,1439.1457 h -2.16368 v 12.0478 h 1.81946 l 0.16391,-1.3441 c 0.34422,0.9507 1.27854,1.508 2.37677,1.508 2.08172,0 3.57335,-1.59 3.57335,-4.229 0,-2.262 -1.24576,-3.9995 -3.2783,-3.9995 -1.08184,0 -1.96698,0.4261 -2.49151,1.3605 z m 0,7.8188 c 0,-1.2786 0.7704,-2.0326 1.65554,-2.0326 1.32771,0 1.88502,1.0491 1.88502,2.3604 0,1.59 -0.754,2.4096 -1.78667,2.4096 -0.86875,0 -1.75389,-0.7704 -1.75389,-1.967 z"
           id="path8562"
           style="fill:#ffffff;fill-opacity:1" /><path
           d="m 180.27594,1443.2928 h -1.81945 v 7.9007 h 2.16368 v -3.8684 c 0,-1.3277 0.50813,-2.2948 1.52441,-2.2948 0.39339,0 0.63926,0.033 0.90153,0.1475 l 0.082,-1.9178 c -0.18031,-0.082 -0.50814,-0.1311 -0.7868,-0.1311 -0.75401,0 -1.62275,0.5901 -1.90141,1.4916 z"
           id="path8564"
           style="fill:#ffffff;fill-opacity:1" /><path
           d="m 189.70454,1449.1445 c -0.5901,0.3115 -1.29493,0.4918 -2.16368,0.4918 -1.18019,0 -1.91781,-0.5573 -2.03255,-1.6064 h 4.80271 c 0.0492,-0.2622 0.082,-0.6392 0.082,-0.9179 0,-2.1637 -0.98349,-3.9831 -3.24552,-3.9831 -2.1145,0 -3.70448,1.6719 -3.70448,4.3601 0,2.5899 1.50802,3.8684 3.6717,3.8684 1.21297,0 2.1145,-0.2295 2.73738,-0.5737 z m -4.17983,-2.6718 c 0.13113,-1.0818 0.73761,-1.6719 1.5244,-1.6719 0.99989,0 1.37689,0.754 1.37689,1.6719 z"
           id="path8566"
           style="fill:#ffffff;fill-opacity:1" /><path
           d="m 196.14988,1439.7522 c -3.0816,0 -5.21249,2.2456 -5.21249,5.8026 0,3.557 2.13089,5.8026 5.21249,5.8026 3.08161,0 5.2125,-2.2456 5.2125,-5.8026 0,-3.557 -2.13089,-5.8026 -5.2125,-5.8026 z m 0,1.1802 c 1.98338,0 3.70448,1.508 3.70448,4.6224 0,3.1144 -1.7211,4.6224 -3.70448,4.6224 -1.98337,0 -3.70447,-1.508 -3.70447,-4.6224 0,-3.1144 1.7211,-4.6224 3.70447,-4.6224 z"
           style="font-weight:normal;-inkscape-font-specification:Vegur;fill:#ffffff;fill-opacity:1"
           id="path8568" /><path
           d="m 203.03779,1443.4239 h -1.09823 v 1.0491 h 1.09823 v 6.7205 h 1.3441 v -6.7205 h 1.98338 v -1.0491 h -1.98338 v -0.9179 c 0,-1.6719 0.88514,-2.4096 1.85224,-2.4096 0.45897,0 0.73762,0.066 0.99988,0.164 l 0.082,-1.1147 c -0.26226,-0.098 -0.65566,-0.1639 -1.09823,-0.1639 -1.95059,0 -3.17995,1.2949 -3.17995,3.7045 z"
           style="font-weight:normal;-inkscape-font-specification:Vegur;fill:#ffffff;fill-opacity:1"
           id="path8570" /><path
           d="m 213.25318,1443.4239 h -4.26179 v -0.4098 c 0,-1.7047 0.72123,-2.9177 2.24564,-2.9177 0.65566,0 1.22936,0.1476 1.68832,0.459 l 0.13113,-1.1474 c -0.32783,-0.2295 -0.99988,-0.4262 -1.68832,-0.4262 -2.21285,0 -3.72087,1.3277 -3.72087,4.2126 v 0.2295 h -1.09823 v 1.0491 h 1.09823 v 6.7205 h 1.3441 v -6.7205 h 2.91769 v 6.7205 h 1.3441 z"
           style="font-weight:normal;-inkscape-font-specification:Vegur;fill:#ffffff;fill-opacity:1"
           id="path8572" /><path
           d="m 219.89874,1449.8822 c -0.49175,0.2458 -1.09823,0.3934 -1.65554,0.3934 -1.65554,0 -2.62264,-1.0491 -2.62264,-2.9997 0,-2.0161 1.1474,-2.9668 2.60625,-2.9668 0.68844,0 1.27853,0.1639 1.75389,0.4261 l 0.11474,-1.1802 c -0.44257,-0.213 -1.13102,-0.3606 -1.91781,-0.3606 -2.1145,0 -4.03231,1.4425 -4.03231,4.1799 0,2.721 1.67194,3.9831 3.80283,3.9831 0.80318,0 1.52441,-0.1639 2.06533,-0.377 z"
           style="font-weight:normal;-inkscape-font-specification:Vegur;fill:#ffffff;fill-opacity:1"
           id="path8574" /><path
           d="m 226.62274,1449.7019 c -0.55732,0.3442 -1.29493,0.5737 -1.98338,0.5737 -1.57358,0 -2.39315,-0.7704 -2.47511,-2.5407 h 4.90106 c 0.0492,-0.2623 0.0656,-0.4262 0.0656,-0.6721 0,-2.1309 -0.83596,-3.8684 -2.86851,-3.8684 -2.1145,0 -3.50778,1.672 -3.50778,4.2946 0,2.5571 1.39328,3.8684 3.55695,3.8684 0.91793,0 1.78668,-0.2131 2.37677,-0.5409 z m -4.42571,-3.0653 c 0.11474,-1.3768 0.83597,-2.2948 1.91781,-2.2948 1.19658,0 1.65554,1.0163 1.65554,2.2948 z"
           style="font-weight:normal;-inkscape-font-specification:Vegur;fill:#ffffff;fill-opacity:1"
           id="path8576" /><path
           d="m 167.50504,1464.6475 c -1.07308,0.5456 -2.01884,0.8002 -3.14647,0.8002 -2.41897,0 -4.03767,-1.7096 -4.03767,-4.6197 0,-2.8372 1.89152,-4.3286 4.09223,-4.3286 1.30951,0 2.38259,0.3092 3.21922,0.7639 l 0.23644,-2.0734 c -0.74569,-0.4365 -1.87333,-0.7276 -3.45566,-0.7276 -3.56479,0 -6.67489,2.2735 -6.67489,6.5658 0,4.2377 2.58266,6.4566 6.25657,6.4566 1.3277,0 2.67359,-0.2364 3.69211,-0.782 z"
           style="font-size:18.1877px;fill:#ffffff;fill-opacity:1"
           id="path8578" /><path
           d="m 172.70413,1458.2818 c -2.43715,0 -4.38323,1.6187 -4.38323,4.5651 0,2.9282 1.94608,4.5651 4.38323,4.5651 2.43715,0 4.38324,-1.6369 4.38324,-4.5651 0,-2.9464 -1.94609,-4.5651 -4.38324,-4.5651 z m 0,1.8551 c 1.10945,0 1.85515,0.9094 1.85515,2.71 0,1.7824 -0.7457,2.7099 -1.85515,2.7099 -1.10945,0 -1.85514,-0.9275 -1.85514,-2.7099 0,-1.8006 0.74569,-2.71 1.85514,-2.71 z"
           style="font-size:18.1877px;fill:#ffffff;fill-opacity:1"
           id="path8580" /><path
           d="m 180.23128,1458.4636 h -2.01884 v 8.7665 h 2.40078 v -4.5105 c 0,-1.3823 0.58201,-2.2917 1.58233,-2.2917 1.01851,0 1.52777,0.7821 1.52777,1.9097 v 4.8925 h 2.40077 v -5.8564 c 0,-1.7824 -1.16401,-3.0919 -3.12828,-3.0919 -1.1822,0 -2.18252,0.582 -2.56447,1.8369 z"
           style="font-size:18.1877px;fill:#ffffff;fill-opacity:1"
           id="path8582" /><path
           d="m 188.08579,1458.5364 h -1.21857 v 1.8915 h 1.21857 v 6.8022 h 2.40078 v -6.8022 h 2.38259 v -1.8915 h -2.38259 v -0.7093 c 0,-1.3095 0.74569,-2.1462 1.9279,-2.1462 0.50925,0 0.96394,0.073 1.30951,0.2183 l 0.16369,-1.9825 c -0.36375,-0.1455 -0.94576,-0.2364 -1.49139,-0.2364 -2.41897,0 -4.31049,1.4368 -4.31049,4.3468 z"
           style="font-size:18.1877px;fill:#ffffff;fill-opacity:1"
           id="path8584" /><path
           d="m 194.39436,1464.6475 c -0.76389,0 -1.38227,0.6183 -1.38227,1.3822 0,0.7639 0.61838,1.3823 1.38227,1.3823 0.76388,0 1.38226,-0.6184 1.38226,-1.3823 0,-0.7639 -0.61838,-1.3822 -1.38226,-1.3822 z"
           style="font-size:18.1877px;fill:#ffffff;fill-opacity:1"
           id="path8586" /><path
           d="m 205.18617,1463.4834 1.12764,3.7467 h 2.6554 l -4.25592,-12.5131 h -2.87366 l -4.25592,12.5131 h 2.58265 l 1.12764,-3.7467 z m -0.61838,-2.037 h -2.65541 l 1.32771,-4.4196 z"
           style="font-size:18.1877px;fill:#ffffff;fill-opacity:1"
           id="path8588" /><path
           d="m 209.23946,1466.9391 c 0.65475,0.3092 1.52776,0.4729 2.29165,0.4729 2.03702,0 3.67391,-1.0913 3.67391,-2.8737 0,-1.3095 -0.65476,-2.1461 -2.3644,-2.5462 -0.60019,-0.1455 -0.98214,-0.4365 -0.98214,-0.9276 0,-0.5456 0.52745,-0.8548 1.25496,-0.8548 0.65475,0 1.23676,0.1455 1.78239,0.4365 l 0.1455,-1.9643 c -0.50925,-0.2183 -1.20039,-0.3819 -2.20071,-0.3819 -1.78239,0 -3.41929,0.9821 -3.41929,2.8918 0,1.3641 0.67295,2.1643 2.2189,2.5645 0.7457,0.2 1.14583,0.4547 1.14583,0.9275 0,0.4911 -0.47288,0.8003 -1.25495,0.8003 -0.65476,0 -1.34589,-0.1091 -2.10978,-0.4547 z"
           style="font-size:18.1877px;fill:#ffffff;fill-opacity:1"
           id="path8590" /><path
           d="m 217.49409,1455.008 c -0.76388,0 -1.38226,0.5638 -1.38226,1.2731 0,0.7093 0.61838,1.2732 1.38226,1.2732 0.76388,0 1.38227,-0.5639 1.38227,-1.2732 0,-0.7093 -0.61839,-1.2731 -1.38227,-1.2731 z m -1.20039,12.2221 h 2.40078 v -8.7665 h -2.40078 z"
           style="font-size:18.1877px;fill:#ffffff;fill-opacity:1"
           id="path8592" /><path
           d="m 220.61981,1461.0281 c 0.70932,-0.4547 1.72783,-0.6729 2.43715,-0.6729 1.14582,0 1.63689,0.5456 1.63689,1.4004 v 0.2001 c -0.21825,-0.018 -0.49107,-0.036 -0.83663,-0.036 -2.29165,0 -3.98311,1.0367 -3.98311,2.91 0,1.6187 1.05489,2.5827 2.63722,2.5827 1.16401,0 1.87333,-0.3456 2.38259,-1.2913 l 0.18187,1.1094 h 2.01884 v -5.6564 c 0,-2.0006 -1.05489,-3.2919 -3.67392,-3.2919 -1.01851,0 -2.20071,0.2546 -2.9464,0.7093 z m 4.07404,2.8919 c 0,1.0185 -0.60019,1.7642 -1.30951,1.7642 -0.65476,0 -1.09126,-0.4184 -1.09126,-1.0186 0,-0.782 0.67294,-1.2731 1.69145,-1.2731 0.23644,0 0.49107,0.018 0.70932,0.036 z"
           style="font-size:18.1877px;fill:#ffffff;fill-opacity:1"
           id="path8594" /></g><g
         aria-label="20 23"
         id="g8608"
         style="font-weight:bold;font-size:6.49459px;line-height:0.8;font-family:Vegur;-inkscape-font-specification:'Vegur Bold';text-align:center;letter-spacing:-0.173964px;text-anchor:middle;fill:#ffffff;fill-opacity:1;stroke-width:1.22662;stroke-linecap:round;stroke-linejoin:round;paint-order:markers fill stroke;stop-color:#000000"
         transform="translate(-130.80858,-1370.0555)" /></g></g></svg>
