<?xml version="1.0" encoding="UTF-8" standalone="no"?>
<!-- Created with Inkscape (http://www.inkscape.org/) -->

<svg
   width="254.26474mm"
   height="214.9882mm"
   viewBox="0 0 254.26474 214.9882"
   version="1.1"
   id="svg5"
   xml:space="preserve"
   inkscape:version="1.2.2 (b0a8486541, 2022-12-01)"
   sodipodi:docname="Logo_LOUCA-2023.svg"
   xmlns:inkscape="http://www.inkscape.org/namespaces/inkscape"
   xmlns:sodipodi="http://sodipodi.sourceforge.net/DTD/sodipodi-0.dtd"
   xmlns="http://www.w3.org/2000/svg"
   xmlns:svg="http://www.w3.org/2000/svg"><sodipodi:namedview
     id="namedview7"
     pagecolor="#ffffff"
     bordercolor="#000000"
     borderopacity="0.25"
     inkscape:showpageshadow="2"
     inkscape:pageopacity="0.0"
     inkscape:pagecheckerboard="0"
     inkscape:deskcolor="#d1d1d1"
     inkscape:document-units="mm"
     showgrid="false"
     inkscape:zoom="0.25"
     inkscape:cx="954"
     inkscape:cy="258"
     inkscape:window-width="1920"
     inkscape:window-height="1044"
     inkscape:window-x="0"
     inkscape:window-y="0"
     inkscape:window-maximized="1"
     inkscape:current-layer="svg5"
     showguides="false"><sodipodi:guide
       position="602.86039,1860.5169"
       orientation="0,-1"
       id="guide16075"
       inkscape:locked="false" /><sodipodi:guide
       position="598.4623,1850.1579"
       orientation="0,-1"
       id="guide16077"
       inkscape:locked="false" /><sodipodi:guide
       position="603.94859,1847.8087"
       orientation="0,-1"
       id="guide16083"
       inkscape:locked="false" /><sodipodi:guide
       position="578.76492,1850.0501"
       orientation="1,0"
       id="guide16085"
       inkscape:locked="false" /><sodipodi:guide
       position="587.99394,1850.0501"
       orientation="1,0"
       id="guide16087"
       inkscape:locked="false" /><sodipodi:guide
       position="603.5934,1837.5285"
       orientation="0,-1"
       id="guide16089"
       inkscape:locked="false" /><sodipodi:guide
       position="913.7945,1697.3586"
       orientation="1,0"
       id="guide29427"
       inkscape:locked="false" /><sodipodi:guide
       position="1548.326,1249.9911"
       orientation="0,-1"
       id="guide19218"
       inkscape:locked="false" /><sodipodi:guide
       position="1550.6631,1262.3696"
       orientation="0,-1"
       id="guide19220"
       inkscape:locked="false" /><sodipodi:guide
       position="1556.7983,1247.6599"
       orientation="0,-1"
       id="guide23333"
       inkscape:locked="false" /><sodipodi:guide
       position="1548.454,1237.7194"
       orientation="0,-1"
       id="guide23335"
       inkscape:locked="false" /><sodipodi:guide
       position="96.158539,-415.35192"
       orientation="1,0"
       id="guide5445"
       inkscape:locked="false" /></sodipodi:namedview><defs
     id="defs2"><style
       id="style182">
      .cls-1 {
        fill: none;
      }

      .cls-2 {
        fill: #e95420;
      }

      .cls-3 {
        fill: #fff;
      }
    </style></defs><g
     id="UbuCon_Asia"
     transform="translate(-264.2648,-7.8688355e-5)"><rect
       style="font-variation-settings:normal;opacity:1;vector-effect:none;fill:#ffffff;fill-opacity:1;stroke:none;stroke-width:2.81822;stroke-linecap:round;stroke-linejoin:round;stroke-miterlimit:4;stroke-dasharray:none;stroke-dashoffset:0;stroke-opacity:1;-inkscape-stroke:none;paint-order:markers fill stroke;stop-color:#000000;stop-opacity:1"
       id="rect7159"
       width="127.13239"
       height="214.9882"
       x="264.2648"
       y="7.8688354e-05"
       rx="0"
       ry="0"
       inkscape:export-filename="draft-LO-2.png"
       inkscape:export-xdpi="100"
       inkscape:export-ydpi="100" /><rect
       style="font-variation-settings:normal;opacity:1;vector-effect:none;fill:#e95420;fill-opacity:1;stroke:none;stroke-width:2.81822;stroke-linecap:round;stroke-linejoin:round;stroke-miterlimit:4;stroke-dasharray:none;stroke-dashoffset:0;stroke-opacity:1;-inkscape-stroke:none;paint-order:markers fill stroke;stop-color:#000000;stop-opacity:1"
       id="rect7161"
       width="127.13239"
       height="214.9882"
       x="391.39716"
       y="7.8688354e-05"
       rx="0"
       ry="0" /><g
       id="g7936"
       transform="matrix(1.6619815,0,0,1.6619815,-1621.6044,48.10194)"
       style="fill:#e95420;fill-opacity:1;stroke-width:1.34451"><g
         id="g7882"
         style="fill:#e95420;fill-opacity:1;stroke-width:1.34451"><path
           style="color:#000000;fill:#e95420;fill-opacity:1;stroke-width:1.34451;stroke-linecap:round;-inkscape-stroke:none;paint-order:markers fill stroke"
           d="m 1158.6035,26.585937 a 1.15,1.15 0 0 0 -1.1504,1.150391 v 4.802734 c 0,2.638683 2.1375,4.8125 4.7657,4.8125 2.628,0 4.7636,-2.173817 4.7636,-4.8125 v -4.802734 a 1.15,1.15 0 0 0 -1.1504,-1.150391 1.15,1.15 0 0 0 -1.1484,1.150391 v 4.802734 c 0,1.420874 -1.0881,2.513672 -2.4648,2.513672 -1.3769,0 -2.4649,-1.092798 -2.4649,-2.513672 v -4.802734 a 1.15,1.15 0 0 0 -1.1504,-1.150391 z"
           id="path7866" /><path
           style="color:#000000;fill:#e95420;fill-opacity:1;stroke-width:1.34451;-inkscape-stroke:none;paint-order:markers fill stroke"
           d="m 1173.1699,26.435547 c -2.3331,0 -4.2461,1.912954 -4.2461,4.246094 v 2.316406 c 0,2.33314 1.913,4.246094 4.2461,4.246094 h 1.0352 c 2.3331,0 4.248,-1.912909 4.248,-4.246094 v -2.316406 c 0,-2.333185 -1.9149,-4.246094 -4.248,-4.246094 z m 0,2.298828 h 1.0352 c 1.0987,0 1.9472,0.848558 1.9472,1.947266 v 2.316406 c 0,1.098708 -0.8485,1.947265 -1.9472,1.947265 h -1.0352 c -1.0987,0 -1.9472,-0.848513 -1.9472,-1.947265 v -2.316406 c 0,-1.098753 0.8485,-1.947266 1.9472,-1.947266 z"
           id="path7868" /><g
           id="g7874"
           style="fill:#e95420;fill-opacity:1;stroke-width:1.34451"><path
             style="color:#000000;fill:#e95420;fill-opacity:1;stroke-width:3.09237;stroke-linecap:round;-inkscape-stroke:none;paint-order:markers fill stroke"
             d="M 1170.0733,32.190948 V 24.752834"
             id="path7870" /><path
             style="color:#000000;fill:#e95420;fill-opacity:1;stroke-width:1.34451;stroke-linecap:round;-inkscape-stroke:none;paint-order:markers fill stroke"
             d="m 1170.0742,23.603516 a 1.15,1.15 0 0 0 -1.1504,1.148437 v 7.439453 a 1.15,1.15 0 0 0 1.1504,1.150391 1.15,1.15 0 0 0 1.1485,-1.150391 v -7.439453 a 1.15,1.15 0 0 0 -1.1485,-1.148437 z"
             id="path7872" /></g><path
           style="color:#000000;fill:#e95420;fill-opacity:1;stroke-width:1.34451;stroke-linecap:round;-inkscape-stroke:none;paint-order:markers fill stroke"
           d="m 1181.543,26.585937 a 1.15,1.15 0 0 0 -1.1504,1.150391 v 4.802734 c 0,2.638683 2.1376,4.8125 4.7656,4.8125 2.6281,0 4.7637,-2.173817 4.7637,-4.8125 v -4.802734 a 1.15,1.15 0 0 0 -1.1504,-1.150391 1.15,1.15 0 0 0 -1.1504,1.150391 v 4.802734 c 0,1.420874 -1.0861,2.513672 -2.4629,2.513672 -1.3767,0 -2.4648,-1.092798 -2.4648,-2.513672 v -4.802734 a 1.15,1.15 0 0 0 -1.1504,-1.150391 z"
           id="path7876" /><path
           style="color:#000000;fill:#e95420;fill-opacity:1;stroke-width:1.34451;stroke-linecap:round;-inkscape-stroke:none;paint-order:markers fill stroke"
           d="m 1185.1582,39.515625 c -2.628,0 -4.7656,2.175771 -4.7656,4.814453 v 4.802734 a 1.15,1.15 0 0 0 1.1504,1.150391 1.15,1.15 0 0 0 1.1504,-1.150391 v -4.802734 c 0,-1.420873 1.0881,-2.513672 2.4648,-2.513672 1.3768,0 2.4629,1.092799 2.4629,2.513672 v 4.802734 a 1.15,1.15 0 0 0 1.1504,1.150391 1.15,1.15 0 0 0 1.1504,-1.150391 v -4.802734 c 0,-2.638682 -2.1356,-4.814453 -4.7637,-4.814453 z"
           id="path7878" /><path
           style="color:#000000;fill:#e95420;fill-opacity:1;stroke-width:1.34451;stroke-linecap:round;-inkscape-stroke:none;paint-order:markers fill stroke"
           d="m 1162.4355,39.578125 c -2.9283,0 -5.3222,2.39198 -5.3222,5.320312 0,2.928341 2.3939,5.322266 5.3222,5.322266 h 3.3965 a 1.15,1.15 0 0 0 1.1504,-1.150391 1.15,1.15 0 0 0 -1.1504,-1.15039 h -3.3965 c -1.6938,0 -3.0214,-1.327569 -3.0214,-3.021485 0,-1.693902 1.3276,-3.021484 3.0214,-3.021484 h 3.3965 a 1.15,1.15 0 0 0 1.1504,-1.150391 1.15,1.15 0 0 0 -1.1504,-1.148437 z"
           id="path7880" /></g><g
         id="g7896"
         style="fill:#e95420;fill-opacity:1;stroke-width:5.83333"
         transform="matrix(0.23048625,0,0,0.23048625,1057.209,32.287271)"><circle
           class="cls-3"
           cx="485.96115"
           cy="53.38073"
           r="6.9135623"
           id="circle7884"
           style="fill:#e95420;fill-opacity:1;stroke-width:1.54341" /><circle
           class="cls-3"
           cx="514.75836"
           cy="38.220116"
           r="6.9135623"
           id="circle7886"
           style="fill:#e95420;fill-opacity:1;stroke-width:1.54341" /><path
           class="cls-3"
           d="m 501.55568,71.17661 c -4.97946,-1.06627 -9.144,-4.24921 -11.48292,-8.75771 -1.84414,0.83873 -3.91583,1.09537 -5.91079,0.7276 2.83104,6.95325 8.83708,12.00415 16.20573,13.58371 1.6166,0.34661 3.26761,0.51594 4.91067,0.50536 -1.27,-1.66952 -1.97644,-3.683 -2.02407,-5.78115 -0.56885,-0.0635 -1.1377,-0.1561 -1.69597,-0.27517 z"
           id="path7888"
           style="fill:#e95420;fill-opacity:1;stroke-width:1.54341" /><circle
           class="cls-3"
           cx="513.20001"
           cy="71.216301"
           r="6.9135623"
           id="circle7890"
           style="fill:#e95420;fill-opacity:1;stroke-width:1.54341" /><path
           class="cls-3"
           d="m 522.82024,68.6763 c 2.15107,-2.70934 3.66448,-5.91344 4.39473,-9.32128 1.27265,-5.93725 0.0847,-12.16818 -3.25967,-17.22172 -0.79639,1.87589 -2.14841,3.46339 -3.88937,4.55348 1.86531,3.51631 2.43417,7.57502 1.59808,11.48027 -0.4101,1.91029 -1.13241,3.7121 -2.15106,5.35781 1.62719,1.3335 2.77548,3.13002 3.30994,5.15144 z"
           id="path7892"
           style="fill:#e95420;fill-opacity:1;stroke-width:1.54341" /><path
           class="cls-3"
           d="m 485.42668,43.4668 c 0.17462,-0.0106 0.3519,-0.0132 0.52652,-0.0132 0.6985,0 1.397,0.0741 2.08756,0.22225 1.12713,0.24077 2.18811,0.66939 3.15648,1.27 3.11415,-4.47675 8.13594,-7.16492 13.57842,-7.26282 0.0291,-0.52122 0.0979,-1.0451 0.20902,-1.55575 0.3175,-1.48166 0.96573,-2.86543 1.88912,-4.05077 -8.6942,-0.68791 -17.145,3.79942 -21.44712,11.39032 z"
           id="path7894"
           style="fill:#e95420;fill-opacity:1;stroke-width:1.54341" /></g><g
         id="g7908"
         style="fill:#e95420;fill-opacity:1;stroke-width:1.34451"
         transform="translate(8.3893504,197.50294)"><path
           style="color:#000000;fill:#e95420;fill-opacity:1;stroke-width:1.34451;stroke-linecap:round;stroke-linejoin:round;-inkscape-stroke:none;paint-order:markers fill stroke"
           d="m 1155.5898,-144.58984 a 0.50005,0.50005 0 0 0 -0.4003,0.16406 l -7.6602,8.50391 a 0.5,0.5 0 0 0 0.035,0.70703 0.5,0.5 0 0 0 0.707,-0.0371 l 6.2148,-6.90039 -1.2773,4.47656 a 0.5,0.5 0 0 0 0.3437,0.61914 0.5,0.5 0 0 0 0.6192,-0.34375 l 1.8711,-6.55469 a 0.50005,0.50005 0 0 0 -0.4532,-0.63476 z"
           id="path7898" /><path
           style="color:#000000;fill:#e95420;fill-opacity:1;stroke-width:1.34451;stroke-linecap:round;stroke-linejoin:round;-inkscape-stroke:none;paint-order:markers fill stroke"
           d="m 1155.3828,-140.78516 -9.0488,0.58789 a 0.5,0.5 0 0 0 -0.4668,0.53125 0.5,0.5 0 0 0 0.5312,0.4668 l 9.0489,-0.58789 a 0.5,0.5 0 0 0 0.4668,-0.53125 0.5,0.5 0 0 0 -0.5313,-0.4668 z"
           id="path7900" /><path
           style="color:#000000;fill:#e95420;fill-opacity:1;stroke-width:1.34451;stroke-linecap:round;stroke-linejoin:round;-inkscape-stroke:none;paint-order:markers fill stroke"
           d="m 1158.9668,-143.74805 c 0,0 -0.4683,0.28893 -0.9785,0.70118 -0.5102,0.41224 -1.0929,0.90939 -1.3106,1.5957 -0.1431,0.45155 0,0.87145 0.1836,1.23437 0.152,0.3053 0.3499,0.58536 0.5371,0.85938 -0.5135,0.3928 -0.5775,0.44352 -1.0957,0.83984 -0.082,0.063 -0.1902,0.18068 -0.2207,0.35352 -0.03,0.17283 0.037,0.33733 0.1,0.42578 0.126,0.1769 0.2304,0.2089 0.334,0.25781 0.2072,0.0978 0.4404,0.16043 0.6973,0.21094 0.2568,0.0505 0.5263,0.0831 0.7793,0.082 0.1265,-5.6e-4 0.2478,-0.007 0.3769,-0.0371 0.1292,-0.0299 0.2863,-0.0711 0.4336,-0.25391 0.3043,-0.37765 0.2604,-0.88182 0.1172,-1.25 -0.051,-0.13222 -0.1439,-0.24465 -0.2129,-0.36914 0.8951,-0.68468 1.63,-1.24884 2.0528,-1.57226 -0.014,0.17228 -0.051,0.33688 -0.02,0.51953 0.055,0.3202 0.2449,0.68915 0.6055,0.87109 0.4396,0.22173 0.9169,0.22029 1.3203,0.10743 0.4035,-0.11287 0.751,-0.32355 1.0469,-0.54493 0.5918,-0.44274 0.9941,-0.96093 0.9941,-0.96093 a 0.5,0.5 0 0 0 -0.088,-0.70313 0.5,0.5 0 0 0 -0.7011,0.0879 c 0,0 -0.339,0.42842 -0.8028,0.77539 -0.2319,0.17349 -0.4899,0.31879 -0.7187,0.38281 -0.2289,0.064 -0.4107,0.0592 -0.6016,-0.0371 -0.036,-0.0179 -0.047,-0.0202 -0.068,-0.14649 -0.022,-0.12632 -0.01,-0.33923 0.031,-0.55273 0.083,-0.427 0.2578,-0.83789 0.2578,-0.83789 a 0.50005,0.50005 0 0 0 -0.7617,-0.59766 c 0,0 -1.7445,1.33663 -3.0586,2.3418 -0.1664,-0.24645 -0.3395,-0.49653 -0.4394,-0.69727 -0.1299,-0.26079 -0.1434,-0.43021 -0.125,-0.48828 0.076,-0.23847 0.5301,-0.75209 0.9843,-1.11914 0.4543,-0.36705 0.877,-0.62695 0.877,-0.62695 a 0.5,0.5 0 0 0 0.1641,-0.6875 0.5,0.5 0 0 0 -0.6895,-0.16407 z m -1.0527,5.25586 c 0.017,0.0359 0.062,0.0952 0.074,0.12696 0.055,0.1409 0.033,0.14518 0.025,0.17578 -0.012,4.7e-4 -0.014,0.002 -0.027,0.002 -0.1099,4.9e-4 -0.2651,-0.0236 -0.4121,-0.0449 0.162,-0.12394 0.1799,-0.13737 0.3399,-0.25977 z"
           id="path7902" /><path
           style="color:#000000;fill:#e95420;fill-opacity:1;stroke-width:1.34451;stroke-linecap:round;stroke-linejoin:round;-inkscape-stroke:none;paint-order:markers fill stroke"
           d="m 1166.9863,-142.76172 c 0,0 -1.3739,-0.27235 -2.5781,0.85352 -0.3602,0.33677 -0.6347,0.74107 -0.6992,1.21679 -0.032,0.23787 0,0.50751 0.1406,0.74024 0.1417,0.23273 0.3814,0.40203 0.6524,0.49219 0.5362,0.17856 1.042,-0.044 1.4492,-0.31641 0.4072,-0.27239 0.7701,-0.63297 1.084,-0.95508 0.1694,-0.17389 0.2503,-0.24628 0.3789,-0.375 0.086,0.30989 0.1083,0.67793 0.2968,0.86524 0.3155,0.3134 0.6858,0.44255 0.9414,0.52343 0.7908,0.25028 1.6492,-0.0278 2.375,-0.29101 0.7259,-0.2632 1.3067,-0.57031 1.3067,-0.57031 a 0.5,0.5 0 0 0 0.209,-0.67579 0.5,0.5 0 0 0 -0.6758,-0.20898 c 0,0 -0.5276,0.27724 -1.1797,0.51367 -0.6521,0.23643 -1.4415,0.37137 -1.7324,0.2793 -0.2108,-0.0667 -0.4124,-0.15347 -0.5391,-0.2793 -0.1267,-0.12583 -0.2251,-0.2819 -0.2051,-0.68945 0.01,-0.10293 0.01,-0.19919 -0.027,-0.32227 -0.033,-0.12308 -0.1321,-0.3112 -0.3281,-0.40039 -0.196,-0.0892 -0.3754,-0.0454 -0.4805,-0.004 -0.01,0.004 -0.013,0.008 -0.022,0.0117 a 0.5,0.5 0 0 0 -0.3672,-0.4082 z m -0.7265,0.96485 c 0.2614,-0.041 0.3812,-0.003 0.4277,0.008 -0.121,0.12481 -0.2332,0.22187 -0.3691,0.36133 -0.3002,0.308 -0.6325,0.6254 -0.9239,0.82031 -0.2913,0.1949 -0.4874,0.22876 -0.5761,0.19922 -0.1002,-0.0333 -0.1097,-0.0565 -0.1133,-0.0625 0,-0.006 -0.015,-0.0212 -0.01,-0.0859 0.018,-0.12949 0.1592,-0.40472 0.3906,-0.62109 0.4468,-0.41767 0.8643,-0.5712 1.17,-0.61914 z"
           id="path7904" /><ellipse
           style="fill:#e95420;fill-opacity:1;stroke:none;stroke-width:2.55456;stroke-linecap:round;stroke-linejoin:round;stroke-dasharray:none;stroke-opacity:1;paint-order:markers fill stroke;stop-color:#000000"
           id="ellipse7906"
           cx="1162.5764"
           cy="-143.73712"
           rx="0.64687616"
           ry="0.65399963" /></g><g
         id="g7932"
         style="fill:#e95420;fill-opacity:1;stroke-width:1.34451"><g
           id="g7914"
           style="fill:#e95420;fill-opacity:1;stroke-width:1.34451"><path
             style="color:#000000;fill:#e95420;fill-opacity:1;stroke-width:1.74786;stroke-linecap:round;stroke-linejoin:round;-inkscape-stroke:none;paint-order:markers fill stroke"
             d="m 1190.4679,21.28959 h -5.4633 m -3.0614,0 h -25.2075"
             id="path7910" /><path
             style="color:#000000;fill:#e95420;fill-opacity:1;stroke-width:1.34451;stroke-linecap:round;stroke-linejoin:round;-inkscape-stroke:none;paint-order:markers fill stroke"
             d="m 1156.7363,20.638672 a 0.64999998,0.64999998 0 0 0 -0.6504,0.65039 0.64999998,0.64999998 0 0 0 0.6504,0.650391 h 25.2071 a 0.64999998,0.64999998 0 0 0 0.6504,-0.650391 0.64999998,0.64999998 0 0 0 -0.6504,-0.65039 z m 28.2676,0 a 0.64999998,0.64999998 0 0 0 -0.6484,0.65039 0.64999998,0.64999998 0 0 0 0.6484,0.650391 h 5.4649 a 0.64999998,0.64999998 0 0 0 0.6484,-0.650391 0.64999998,0.64999998 0 0 0 -0.6484,-0.65039 z"
             id="path7912" /></g><path
           style="color:#000000;fill:#e95420;fill-opacity:1;stroke-width:1.34451;stroke-linecap:round;stroke-linejoin:round;-inkscape-stroke:none;paint-order:markers fill stroke"
           d="m 1157.2012,16.412109 c -0.4649,0.0126 -0.9128,0.19161 -1.2559,0.521485 -0.4148,0.398829 -0.6134,0.955316 -0.5644,1.517578 0.049,0.558877 0.3356,1.058042 0.7734,1.390625 0.3233,0.245616 0.6957,0.377582 1.0664,0.423828 0.3681,0.04592 0.7251,0.0059 1.0527,-0.07617 0.6523,-0.163379 1.178,-0.484018 1.6465,-0.75 0.6091,-0.34578 1.2081,-0.661563 1.8184,-0.876953 0.6084,-0.214706 1.2352,-0.329373 1.8262,-0.279297 0.9529,0.08075 1.8886,0.629265 2.4238,1.421875 a 0.64999998,0.64999998 0 0 0 0.9023,0.175781 0.64999998,0.64999998 0 0 0 0.1739,-0.902343 c -0.7649,-1.132703 -2.0288,-1.874843 -3.3907,-1.990235 -0.8284,-0.07019 -1.6323,0.08829 -2.3672,0.347656 -0.7329,0.258678 -1.3996,0.615198 -2.0293,0.972657 -0.4825,0.273947 -0.9117,0.518747 -1.3203,0.621093 -0.2027,0.05079 -0.3996,0.0667 -0.5742,0.04492 -0.1719,-0.02144 -0.3312,-0.08278 -0.4433,-0.167968 -0.1433,-0.108858 -0.2491,-0.298691 -0.2637,-0.466797 -0.014,-0.164721 0.059,-0.361795 0.1699,-0.46875 0.095,-0.09094 0.2486,-0.154354 0.3906,-0.158203 0.1443,-0.0039 0.3106,0.04966 0.4336,0.144531 0.047,0.03647 0.09,0.08013 0.127,0.126953 a 0.64999998,0.64999998 0 0 0 0.914,0.105469 0.64999998,0.64999998 0 0 0 0.1055,-0.91211 c -0.1031,-0.130264 -0.222,-0.248149 -0.3535,-0.349609 -0.3577,-0.275962 -0.7991,-0.428555 -1.2617,-0.416016 z"
           id="path7916" /><path
           style="color:#000000;fill:#e95420;fill-opacity:1;stroke-width:1.34451;stroke-linecap:round;stroke-linejoin:round;-inkscape-stroke:none;paint-order:markers fill stroke"
           d="m 1171.5664,15.714844 a 0.50005,0.50005 0 0 0 -0.5,0.5 v 5.074218 a 0.50005,0.50005 0 0 0 0.5,0.5 h 4.0703 a 0.50005,0.50005 0 0 0 0.5,-0.5 v -5.074218 a 0.50005,0.50005 0 0 0 -0.5,-0.5 z m 0.5,1 h 3.0703 v 4.074218 h -3.0703 z"
           id="path7918" /><path
           style="color:#000000;fill:#e95420;fill-opacity:1;stroke-width:1.34451;stroke-linecap:round;stroke-linejoin:round;-inkscape-stroke:none;paint-order:markers fill stroke"
           d="m 1171.0859,11.341797 c -0.5357,0.01536 -1.0612,0.166117 -1.5234,0.4375 -0.4622,0.271383 -0.8486,0.656819 -1.123,1.117187 -0.2745,0.460369 -0.4304,0.983901 -0.4493,1.519532 0,0.08992 0.052,0.170221 0.057,0.259765 -0.6386,-0.163948 -1.2964,-0.240481 -1.9512,-0.128906 -0.7807,0.13304 -1.5208,0.464009 -2.1406,0.957031 -0.6199,0.493022 -1.1088,1.138342 -1.4141,1.869141 a 0.64999998,0.64999998 0 0 0 0.3496,0.851562 0.64999998,0.64999998 0 0 0 0.8496,-0.349609 c 0.2195,-0.525477 0.5778,-0.999011 1.0235,-1.353516 0.4457,-0.354504 0.9894,-0.597697 1.5508,-0.693359 0.7683,-0.130924 1.5959,0.01753 2.2714,0.40625 a 0.65006498,0.65006498 0 0 0 0.9043,-0.855469 c -0.1413,-0.280243 -0.2103,-0.604316 -0.1992,-0.917968 0.011,-0.313653 0.103,-0.63081 0.2637,-0.900391 0.1607,-0.269581 0.3954,-0.501241 0.666,-0.660156 0.2706,-0.158916 0.5886,-0.250773 0.9023,-0.259766 0.3347,-0.0096 0.6548,0.08729 0.8497,0.255859 0.096,0.08351 0.171,0.189746 0.207,0.291016 0.035,0.09883 0.039,0.211049 0.016,0.292969 -0.022,0.07822 -0.078,0.159385 -0.1426,0.208984 -0.064,0.0496 -0.1571,0.08273 -0.2382,0.08399 a 0.64999998,0.64999998 0 0 0 -0.6407,0.660156 0.64999998,0.64999998 0 0 0 0.6602,0.638672 c 0.3684,-0.0057 0.722,-0.128487 1.0137,-0.353516 0.2917,-0.225029 0.5006,-0.535761 0.5996,-0.890625 0.1017,-0.364684 0.077,-0.738077 -0.043,-1.076172 -0.1192,-0.335657 -0.326,-0.61803 -0.5801,-0.83789 -0.5064,-0.438174 -1.146,-0.589244 -1.7383,-0.572266 z"
           id="path7920" /><path
           style="color:#000000;fill:#e95420;fill-opacity:1;stroke-width:1.34451;stroke-linecap:round;stroke-linejoin:round;-inkscape-stroke:none;paint-order:markers fill stroke"
           d="m 1189.834,16.412109 c -0.4627,-0.01254 -0.904,0.140054 -1.2617,0.416016 -0.1316,0.10146 -0.2505,0.219345 -0.3535,0.349609 a 0.64999998,0.64999998 0 0 0 0.1054,0.91211 0.64999998,0.64999998 0 0 0 0.9141,-0.105469 c 0.037,-0.04683 0.08,-0.09048 0.1269,-0.126953 0.123,-0.09487 0.2894,-0.148442 0.4336,-0.144531 0.142,0.0038 0.2961,0.06727 0.3907,0.158203 0.1112,0.106955 0.1842,0.304029 0.1699,0.46875 -0.015,0.168106 -0.1204,0.357939 -0.2637,0.466797 -0.1121,0.08518 -0.2714,0.146524 -0.4434,0.167968 -0.1745,0.02178 -0.3714,0.0059 -0.5742,-0.04492 -0.4086,-0.102346 -0.8377,-0.347146 -1.3203,-0.621093 -0.6297,-0.357459 -1.2944,-0.713979 -2.0273,-0.972657 -0.7349,-0.259361 -1.5408,-0.417846 -2.3692,-0.347656 -1.3618,0.115392 -2.6258,0.857532 -3.3906,1.990235 a 0.64999998,0.64999998 0 0 0 0.1738,0.902343 0.64999998,0.64999998 0 0 0 0.9024,-0.175781 c 0.5352,-0.79261 1.4708,-1.341129 2.4238,-1.421875 0.591,-0.05008 1.2178,0.06459 1.8262,0.279297 0.6103,0.21539 1.2092,0.531173 1.8183,0.876953 0.4686,0.265982 0.9942,0.586621 1.6465,0.75 0.3277,0.08207 0.6847,0.122087 1.0528,0.07617 0.3707,-0.04625 0.7431,-0.178212 1.0664,-0.423828 0.4377,-0.332583 0.7247,-0.831748 0.7734,-1.390625 0.049,-0.562262 -0.1497,-1.118749 -0.5645,-1.517578 -0.343,-0.329875 -0.7909,-0.508884 -1.2558,-0.521485 z"
           id="path7922" /><path
           style="color:#000000;fill:#e95420;fill-opacity:1;stroke-width:1.34451;stroke-linecap:round;stroke-linejoin:round;-inkscape-stroke:none;paint-order:markers fill stroke"
           d="m 1175.9492,11.341797 c -0.5922,-0.01698 -1.2318,0.134092 -1.7383,0.572266 -0.2541,0.21986 -0.4609,0.502233 -0.58,0.83789 -0.1201,0.338095 -0.1447,0.711488 -0.043,1.076172 0.099,0.354864 0.3079,0.665596 0.5996,0.890625 0.2917,0.225029 0.6453,0.347841 1.0137,0.353516 a 0.64999998,0.64999998 0 0 0 0.6601,-0.638672 0.64999998,0.64999998 0 0 0 -0.6406,-0.660156 c -0.081,-0.0013 -0.174,-0.03439 -0.2383,-0.08399 -0.064,-0.0496 -0.1207,-0.130767 -0.1426,-0.208984 -0.023,-0.08192 -0.017,-0.194136 0.018,-0.292969 0.036,-0.10127 0.1086,-0.207505 0.2051,-0.291016 0.1948,-0.168568 0.5149,-0.265453 0.8496,-0.255859 0.3137,0.009 0.6317,0.10085 0.9024,0.259766 0.2706,0.158915 0.5053,0.390575 0.666,0.660156 0.1607,0.269581 0.2526,0.586738 0.2636,0.900391 0.011,0.313652 -0.058,0.637725 -0.1992,0.917968 a 0.65006498,0.65006498 0 0 0 0.9043,0.855469 c 0.6756,-0.388717 1.5032,-0.537174 2.2715,-0.40625 0.5614,0.09566 1.1051,0.338855 1.5508,0.693359 0.4457,0.354505 0.8039,0.828039 1.0234,1.353516 a 0.64999998,0.64999998 0 0 0 0.8496,0.349609 0.64999998,0.64999998 0 0 0 0.3496,-0.851562 c -0.3052,-0.730799 -0.7942,-1.376119 -1.414,-1.869141 -0.6199,-0.493022 -1.3599,-0.823991 -2.1406,-0.957031 -0.6553,-0.111656 -1.3123,-0.03535 -1.9512,0.128906 0,-0.08954 0.06,-0.169848 0.057,-0.259765 -0.019,-0.535631 -0.1748,-1.059163 -0.4492,-1.519532 -0.2744,-0.460368 -0.6609,-0.845804 -1.123,-1.117187 -0.4622,-0.271383 -0.9877,-0.422142 -1.5235,-0.4375 z"
           id="path7924" /><path
           style="color:#000000;fill:#e95420;fill-opacity:1;stroke-width:1.34451;stroke-linecap:round;stroke-linejoin:round;-inkscape-stroke:none;paint-order:markers fill stroke"
           d="m 1171.4941,17.683594 c -0.5917,-0.0673 -1.1935,0.02643 -1.7363,0.271484 -0.561,0.253274 -1.0415,0.660944 -1.3848,1.171875 -0.3432,0.510931 -0.5382,1.109509 -0.5605,1.724609 a 0.64999998,0.64999998 0 0 0 0.627,0.673829 0.64999998,0.64999998 0 0 0 0.6718,-0.626954 c 0.013,-0.368685 0.1342,-0.740627 0.3399,-1.046875 0.2057,-0.306247 0.5055,-0.559127 0.8418,-0.710937 0.3256,-0.147 0.6997,-0.206387 1.0547,-0.166016 a 0.64999998,0.64999998 0 0 0 0.7187,-0.572265 0.64999998,0.64999998 0 0 0 -0.5723,-0.71875 z"
           id="path7926" /><path
           style="color:#000000;fill:#e95420;fill-opacity:1;stroke-width:1.34451;stroke-linecap:round;stroke-linejoin:round;-inkscape-stroke:none;paint-order:markers fill stroke"
           d="m 1175.7266,17.683594 a 0.64999998,0.64999998 0 0 0 -0.5723,0.71875 0.64999998,0.64999998 0 0 0 0.7207,0.572265 c 0.355,-0.04037 0.7271,0.01902 1.0527,0.166016 0.3363,0.15181 0.6361,0.40469 0.8418,0.710937 0.2058,0.306248 0.3265,0.67819 0.3399,1.046875 a 0.64999998,0.64999998 0 0 0 0.6738,0.626954 0.64999998,0.64999998 0 0 0 0.625,-0.673829 c -0.022,-0.6151 -0.2154,-1.213678 -0.5586,-1.724609 -0.3432,-0.510931 -0.8257,-0.918601 -1.3867,-1.171875 -0.5428,-0.245053 -1.1446,-0.338785 -1.7363,-0.271484 z"
           id="path7928" /><path
           style="color:#000000;fill:#e95420;fill-opacity:1;stroke-width:1.34451;stroke-linecap:round;stroke-linejoin:round;-inkscape-stroke:none;paint-order:markers fill stroke"
           d="m 1173.5176,9.0546875 a 0.65006498,0.65006498 0 0 0 -0.5215,0.2617188 l -1.5859,2.1249997 a 0.64999998,0.64999998 0 0 0 0.1328,0.910157 0.64999998,0.64999998 0 0 0 0.9082,-0.132813 l 1.0664,-1.427734 1.0664,1.427734 a 0.64999998,0.64999998 0 0 0 0.9082,0.132813 0.64999998,0.64999998 0 0 0 0.1328,-0.910157 l -1.5859,-2.1249997 a 0.65006498,0.65006498 0 0 0 -0.5215,-0.2617188 z"
           id="path7930" /></g><path
         id="path7934"
         style="fill:#e95420;fill-opacity:1;stroke:none;stroke-width:1.42983;stroke-linecap:round;stroke-linejoin:round;stroke-dasharray:none;stroke-opacity:1;paint-order:markers fill stroke;stop-color:#000000"
         d="m 1185.0615,51.977189 a 5.037087,5.037087 0 0 0 -5.0369,5.036902 5.037087,5.037087 0 0 0 5.0369,5.037419 5.037087,5.037087 0 0 0 5.0369,-5.037419 5.037087,5.037087 0 0 0 -5.0369,-5.036902 z m -1.2542,1.702739 c 0.167,0 0.3106,0.01904 0.431,0.05736 0.1205,0.03832 0.219,0.09316 0.2956,0.164331 0.079,0.06844 0.137,0.153482 0.1726,0.254765 0.038,0.09855 0.057,0.21101 0.057,0.336931 0,0.104021 -0.02,0.203914 -0.062,0.299723 -0.041,0.09581 -0.094,0.188719 -0.1602,0.279053 -0.066,0.0876 -0.1396,0.172643 -0.2217,0.254764 -0.082,0.08212 -0.163,0.159668 -0.2424,0.233578 -0.041,0.03832 -0.086,0.0825 -0.1354,0.131775 -0.047,0.04654 -0.092,0.09439 -0.1354,0.14366 -0.044,0.04927 -0.084,0.09573 -0.1193,0.139527 -0.033,0.04106 -0.053,0.07546 -0.062,0.102836 h 1.2237 v 0.513147 h -1.8971 c -0.01,-0.03011 -0.01,-0.0687 -0.01,-0.115239 v -0.09819 c 0,-0.131395 0.021,-0.252239 0.062,-0.361735 0.044,-0.109496 0.1001,-0.210786 0.1685,-0.303857 0.068,-0.09581 0.1451,-0.184529 0.23,-0.266651 0.088,-0.08212 0.174,-0.164374 0.2589,-0.246496 0.066,-0.06296 0.127,-0.121469 0.1845,-0.176217 0.057,-0.05748 0.1081,-0.11232 0.1519,-0.164331 0.044,-0.05475 0.078,-0.108186 0.1028,-0.160197 0.025,-0.05475 0.037,-0.109583 0.037,-0.164331 0,-0.120445 -0.034,-0.205492 -0.1023,-0.254765 -0.068,-0.04927 -0.1535,-0.0739 -0.2548,-0.0739 -0.074,0 -0.1436,0.01257 -0.2093,0.03721 -0.063,0.0219 -0.122,0.04932 -0.1767,0.08217 -0.052,0.03011 -0.097,0.0612 -0.1354,0.09405 -0.038,0.03011 -0.067,0.05525 -0.086,0.07441 l -0.3038,-0.427364 c 0.1204,-0.112234 0.2603,-0.203747 0.419,-0.274919 0.1616,-0.07391 0.3339,-0.111104 0.5173,-0.111104 z m 2.4185,0 c 0.3203,0 0.5707,0.128707 0.7514,0.386023 0.1834,0.254577 0.2749,0.620266 0.2749,1.096573 0,0.479045 -0.091,0.84701 -0.2749,1.104326 -0.1807,0.254578 -0.4311,0.381889 -0.7514,0.381889 -0.3203,0 -0.5721,-0.127311 -0.7555,-0.381889 -0.1807,-0.257316 -0.2713,-0.625281 -0.2713,-1.104326 0,-0.238153 0.023,-0.449113 0.07,-0.632519 0.049,-0.183406 0.1195,-0.338134 0.2098,-0.464054 0.09,-0.125921 0.1981,-0.221624 0.3241,-0.287321 0.1259,-0.0657 0.2672,-0.0987 0.4232,-0.0987 z m 0,0.525549 c -0.077,0 -0.1413,0.02323 -0.1933,0.06976 -0.049,0.04654 -0.09,0.112545 -0.123,0.197404 -0.03,0.08486 -0.052,0.186149 -0.066,0.303857 -0.014,0.114971 -0.021,0.243679 -0.021,0.386023 0,0.142345 0.01,0.272449 0.021,0.390157 0.014,0.117709 0.035,0.218999 0.066,0.303858 0.033,0.08486 0.074,0.150351 0.123,0.196887 0.052,0.04654 0.1166,0.06976 0.1933,0.06976 0.077,0 0.1407,-0.02323 0.1927,-0.06976 0.052,-0.04654 0.093,-0.112028 0.1235,-0.196887 0.03,-0.08486 0.052,-0.186149 0.066,-0.303858 0.014,-0.117708 0.02,-0.247812 0.02,-0.390157 0,-0.142344 -0.01,-0.271052 -0.02,-0.386023 -0.014,-0.117708 -0.035,-0.218998 -0.066,-0.303857 -0.03,-0.08486 -0.072,-0.150868 -0.1235,-0.197404 -0.052,-0.04654 -0.1161,-0.06976 -0.1927,-0.06976 z m -2.4185,3.169832 c 0.167,0 0.3106,0.01955 0.431,0.05788 0.1205,0.03832 0.219,0.09316 0.2956,0.164331 0.079,0.06844 0.137,0.152964 0.1726,0.254248 0.038,0.09855 0.057,0.21101 0.057,0.33693 0,0.104021 -0.02,0.203915 -0.062,0.299724 -0.041,0.09581 -0.094,0.188718 -0.1602,0.279052 -0.066,0.0876 -0.1396,0.172643 -0.2217,0.254765 -0.082,0.08212 -0.163,0.160185 -0.2424,0.234094 -0.041,0.03832 -0.086,0.08198 -0.1354,0.131259 -0.047,0.04653 -0.092,0.09439 -0.1354,0.14366 -0.044,0.04927 -0.084,0.09573 -0.1193,0.139526 -0.033,0.04106 -0.053,0.07546 -0.062,0.102836 h 1.2237 v 0.513147 h -1.8971 c -0.01,-0.03011 -0.01,-0.06819 -0.01,-0.114721 v -0.0987 c 0,-0.131395 0.021,-0.251723 0.062,-0.361218 0.044,-0.109496 0.1001,-0.210786 0.1685,-0.303858 0.068,-0.09581 0.1451,-0.185045 0.23,-0.267167 0.088,-0.08212 0.174,-0.164375 0.2589,-0.246497 0.066,-0.06296 0.127,-0.121468 0.1845,-0.176216 0.057,-0.05749 0.1081,-0.112321 0.1519,-0.164331 0.044,-0.05475 0.078,-0.108187 0.1028,-0.160197 0.025,-0.05475 0.037,-0.109583 0.037,-0.164331 0,-0.120446 -0.034,-0.204975 -0.1023,-0.254248 -0.068,-0.04927 -0.1535,-0.0739 -0.2548,-0.0739 -0.074,0 -0.1436,0.01205 -0.2093,0.03669 -0.063,0.0219 -0.122,0.04932 -0.1767,0.08217 -0.052,0.03011 -0.097,0.06172 -0.1354,0.09457 -0.038,0.03011 -0.067,0.05474 -0.086,0.0739 l -0.3038,-0.427364 c 0.1204,-0.112233 0.2603,-0.203746 0.419,-0.274918 0.1616,-0.07391 0.3339,-0.111105 0.5173,-0.111105 z m 2.2418,0 c 0.1669,0 0.3105,0.02095 0.4309,0.06201 0.1232,0.03832 0.2245,0.09404 0.3039,0.167948 0.079,0.07117 0.1384,0.156219 0.1767,0.254765 0.038,0.09581 0.057,0.201289 0.057,0.31626 0,0.112233 -0.031,0.221904 -0.094,0.328662 -0.063,0.104021 -0.148,0.182964 -0.2547,0.237712 0.1478,0.06022 0.2611,0.150855 0.3405,0.271301 0.082,0.117708 0.1235,0.259866 0.1235,0.426847 0,0.131395 -0.022,0.253119 -0.066,0.365353 -0.044,0.109496 -0.1126,0.205715 -0.2057,0.287837 -0.093,0.07939 -0.212,0.142084 -0.3571,0.188619 -0.1423,0.0438 -0.3119,0.06563 -0.509,0.06563 -0.074,0 -0.1519,-0.0056 -0.2341,-0.01654 -0.082,-0.0082 -0.1616,-0.02027 -0.2382,-0.03669 -0.077,-0.01643 -0.1463,-0.03407 -0.2093,-0.05323 -0.063,-0.01916 -0.1122,-0.03732 -0.1478,-0.05374 l 0.1189,-0.509012 c 0.071,0.03011 0.1618,0.06311 0.2713,0.0987 0.1122,0.03285 0.2502,0.04909 0.4144,0.04909 0.1889,0 0.3274,-0.03528 0.415,-0.106453 0.088,-0.07117 0.1312,-0.167393 0.1312,-0.287838 0,-0.07391 -0.016,-0.135212 -0.049,-0.184485 -0.03,-0.05201 -0.073,-0.0934 -0.1276,-0.123507 -0.055,-0.03285 -0.1202,-0.05468 -0.1969,-0.06563 -0.074,-0.01369 -0.1533,-0.02015 -0.2382,-0.02015 h -0.2382 V 58.54578 h 0.2713 c 0.06,0 0.1173,-0.0056 0.172,-0.01654 0.057,-0.01095 0.1082,-0.02859 0.152,-0.05323 0.044,-0.02737 0.078,-0.06317 0.1028,-0.10697 0.027,-0.04654 0.041,-0.103648 0.041,-0.172082 0,-0.05201 -0.011,-0.09759 -0.033,-0.135909 -0.022,-0.03832 -0.051,-0.06941 -0.086,-0.09405 -0.033,-0.02464 -0.072,-0.04279 -0.1189,-0.05374 -0.044,-0.01369 -0.089,-0.02015 -0.1359,-0.02015 -0.1177,0 -0.2268,0.01764 -0.3281,0.05323 -0.099,0.03559 -0.1892,0.07925 -0.2713,0.131258 l -0.2176,-0.447518 c 0.044,-0.02737 0.094,-0.05619 0.1519,-0.0863 0.06,-0.03011 0.1263,-0.05753 0.1974,-0.08216 0.071,-0.02464 0.1465,-0.04507 0.2259,-0.0615 0.082,-0.01642 0.168,-0.02481 0.2584,-0.02481 z" /></g><g
       id="g8008"
       transform="matrix(1.6619815,0,0,1.6619815,-1494.472,48.101941)"
       style="fill:#ffffff;fill-opacity:1;stroke-width:1.34451"><g
         id="g7954"
         style="fill:#ffffff;fill-opacity:1;stroke-width:1.34451"><path
           style="color:#000000;fill:#ffffff;fill-opacity:1;stroke-width:1.34451;stroke-linecap:round;-inkscape-stroke:none;paint-order:markers fill stroke"
           d="m 1158.6035,26.585937 a 1.15,1.15 0 0 0 -1.1504,1.150391 v 4.802734 c 0,2.638683 2.1375,4.8125 4.7657,4.8125 2.628,0 4.7636,-2.173817 4.7636,-4.8125 v -4.802734 a 1.15,1.15 0 0 0 -1.1504,-1.150391 1.15,1.15 0 0 0 -1.1484,1.150391 v 4.802734 c 0,1.420874 -1.0881,2.513672 -2.4648,2.513672 -1.3769,0 -2.4649,-1.092798 -2.4649,-2.513672 v -4.802734 a 1.15,1.15 0 0 0 -1.1504,-1.150391 z"
           id="path7938" /><path
           style="color:#000000;fill:#ffffff;fill-opacity:1;stroke-width:1.34451;-inkscape-stroke:none;paint-order:markers fill stroke"
           d="m 1173.1699,26.435547 c -2.3331,0 -4.2461,1.912954 -4.2461,4.246094 v 2.316406 c 0,2.33314 1.913,4.246094 4.2461,4.246094 h 1.0352 c 2.3331,0 4.248,-1.912909 4.248,-4.246094 v -2.316406 c 0,-2.333185 -1.9149,-4.246094 -4.248,-4.246094 z m 0,2.298828 h 1.0352 c 1.0987,0 1.9472,0.848558 1.9472,1.947266 v 2.316406 c 0,1.098708 -0.8485,1.947265 -1.9472,1.947265 h -1.0352 c -1.0987,0 -1.9472,-0.848513 -1.9472,-1.947265 v -2.316406 c 0,-1.098753 0.8485,-1.947266 1.9472,-1.947266 z"
           id="path7940" /><g
           id="g7946"
           style="fill:#ffffff;fill-opacity:1;stroke-width:1.34451"><path
             style="color:#000000;fill:#ffffff;fill-opacity:1;stroke-width:3.09237;stroke-linecap:round;-inkscape-stroke:none;paint-order:markers fill stroke"
             d="M 1170.0733,32.190948 V 24.752834"
             id="path7942" /><path
             style="color:#000000;fill:#ffffff;fill-opacity:1;stroke-width:1.34451;stroke-linecap:round;-inkscape-stroke:none;paint-order:markers fill stroke"
             d="m 1170.0742,23.603516 a 1.15,1.15 0 0 0 -1.1504,1.148437 v 7.439453 a 1.15,1.15 0 0 0 1.1504,1.150391 1.15,1.15 0 0 0 1.1485,-1.150391 v -7.439453 a 1.15,1.15 0 0 0 -1.1485,-1.148437 z"
             id="path7944" /></g><path
           style="color:#000000;fill:#ffffff;fill-opacity:1;stroke-width:1.34451;stroke-linecap:round;-inkscape-stroke:none;paint-order:markers fill stroke"
           d="m 1181.543,26.585937 a 1.15,1.15 0 0 0 -1.1504,1.150391 v 4.802734 c 0,2.638683 2.1376,4.8125 4.7656,4.8125 2.6281,0 4.7637,-2.173817 4.7637,-4.8125 v -4.802734 a 1.15,1.15 0 0 0 -1.1504,-1.150391 1.15,1.15 0 0 0 -1.1504,1.150391 v 4.802734 c 0,1.420874 -1.0861,2.513672 -2.4629,2.513672 -1.3767,0 -2.4648,-1.092798 -2.4648,-2.513672 v -4.802734 a 1.15,1.15 0 0 0 -1.1504,-1.150391 z"
           id="path7948" /><path
           style="color:#000000;fill:#ffffff;fill-opacity:1;stroke-width:1.34451;stroke-linecap:round;-inkscape-stroke:none;paint-order:markers fill stroke"
           d="m 1185.1582,39.515625 c -2.628,0 -4.7656,2.175771 -4.7656,4.814453 v 4.802734 a 1.15,1.15 0 0 0 1.1504,1.150391 1.15,1.15 0 0 0 1.1504,-1.150391 v -4.802734 c 0,-1.420873 1.0881,-2.513672 2.4648,-2.513672 1.3768,0 2.4629,1.092799 2.4629,2.513672 v 4.802734 a 1.15,1.15 0 0 0 1.1504,1.150391 1.15,1.15 0 0 0 1.1504,-1.150391 v -4.802734 c 0,-2.638682 -2.1356,-4.814453 -4.7637,-4.814453 z"
           id="path7950" /><path
           style="color:#000000;fill:#ffffff;fill-opacity:1;stroke-width:1.34451;stroke-linecap:round;-inkscape-stroke:none;paint-order:markers fill stroke"
           d="m 1162.4355,39.578125 c -2.9283,0 -5.3222,2.39198 -5.3222,5.320312 0,2.928341 2.3939,5.322266 5.3222,5.322266 h 3.3965 a 1.15,1.15 0 0 0 1.1504,-1.150391 1.15,1.15 0 0 0 -1.1504,-1.15039 h -3.3965 c -1.6938,0 -3.0214,-1.327569 -3.0214,-3.021485 0,-1.693902 1.3276,-3.021484 3.0214,-3.021484 h 3.3965 a 1.15,1.15 0 0 0 1.1504,-1.150391 1.15,1.15 0 0 0 -1.1504,-1.148437 z"
           id="path7952" /></g><g
         id="g7968"
         style="fill:#ffffff;fill-opacity:1;stroke-width:5.83333"
         transform="matrix(0.23048625,0,0,0.23048625,1057.209,32.287271)"><circle
           class="cls-3"
           cx="485.96115"
           cy="53.38073"
           r="6.9135623"
           id="circle7956"
           style="fill:#ffffff;fill-opacity:1;stroke-width:1.54341" /><circle
           class="cls-3"
           cx="514.75836"
           cy="38.220116"
           r="6.9135623"
           id="circle7958"
           style="fill:#ffffff;fill-opacity:1;stroke-width:1.54341" /><path
           class="cls-3"
           d="m 501.55568,71.17661 c -4.97946,-1.06627 -9.144,-4.24921 -11.48292,-8.75771 -1.84414,0.83873 -3.91583,1.09537 -5.91079,0.7276 2.83104,6.95325 8.83708,12.00415 16.20573,13.58371 1.6166,0.34661 3.26761,0.51594 4.91067,0.50536 -1.27,-1.66952 -1.97644,-3.683 -2.02407,-5.78115 -0.56885,-0.0635 -1.1377,-0.1561 -1.69597,-0.27517 z"
           id="path7960"
           style="fill:#ffffff;fill-opacity:1;stroke-width:1.54341" /><circle
           class="cls-3"
           cx="513.20001"
           cy="71.216301"
           r="6.9135623"
           id="circle7962"
           style="fill:#ffffff;fill-opacity:1;stroke-width:1.54341" /><path
           class="cls-3"
           d="m 522.82024,68.6763 c 2.15107,-2.70934 3.66448,-5.91344 4.39473,-9.32128 1.27265,-5.93725 0.0847,-12.16818 -3.25967,-17.22172 -0.79639,1.87589 -2.14841,3.46339 -3.88937,4.55348 1.86531,3.51631 2.43417,7.57502 1.59808,11.48027 -0.4101,1.91029 -1.13241,3.7121 -2.15106,5.35781 1.62719,1.3335 2.77548,3.13002 3.30994,5.15144 z"
           id="path7964"
           style="fill:#ffffff;fill-opacity:1;stroke-width:1.54341" /><path
           class="cls-3"
           d="m 485.42668,43.4668 c 0.17462,-0.0106 0.3519,-0.0132 0.52652,-0.0132 0.6985,0 1.397,0.0741 2.08756,0.22225 1.12713,0.24077 2.18811,0.66939 3.15648,1.27 3.11415,-4.47675 8.13594,-7.16492 13.57842,-7.26282 0.0291,-0.52122 0.0979,-1.0451 0.20902,-1.55575 0.3175,-1.48166 0.96573,-2.86543 1.88912,-4.05077 -8.6942,-0.68791 -17.145,3.79942 -21.44712,11.39032 z"
           id="path7966"
           style="fill:#ffffff;fill-opacity:1;stroke-width:1.54341" /></g><g
         id="g7980"
         style="fill:#ffffff;fill-opacity:1;stroke-width:1.34451"
         transform="translate(8.3893504,197.50294)"><path
           style="color:#000000;fill:#ffffff;fill-opacity:1;stroke-width:1.34451;stroke-linecap:round;stroke-linejoin:round;-inkscape-stroke:none;paint-order:markers fill stroke"
           d="m 1155.5898,-144.58984 a 0.50005,0.50005 0 0 0 -0.4003,0.16406 l -7.6602,8.50391 a 0.5,0.5 0 0 0 0.035,0.70703 0.5,0.5 0 0 0 0.707,-0.0371 l 6.2148,-6.90039 -1.2773,4.47656 a 0.5,0.5 0 0 0 0.3437,0.61914 0.5,0.5 0 0 0 0.6192,-0.34375 l 1.8711,-6.55469 a 0.50005,0.50005 0 0 0 -0.4532,-0.63476 z"
           id="path7970" /><path
           style="color:#000000;fill:#ffffff;fill-opacity:1;stroke-width:1.34451;stroke-linecap:round;stroke-linejoin:round;-inkscape-stroke:none;paint-order:markers fill stroke"
           d="m 1155.3828,-140.78516 -9.0488,0.58789 a 0.5,0.5 0 0 0 -0.4668,0.53125 0.5,0.5 0 0 0 0.5312,0.4668 l 9.0489,-0.58789 a 0.5,0.5 0 0 0 0.4668,-0.53125 0.5,0.5 0 0 0 -0.5313,-0.4668 z"
           id="path7972" /><path
           style="color:#000000;fill:#ffffff;fill-opacity:1;stroke-width:1.34451;stroke-linecap:round;stroke-linejoin:round;-inkscape-stroke:none;paint-order:markers fill stroke"
           d="m 1158.9668,-143.74805 c 0,0 -0.4683,0.28893 -0.9785,0.70118 -0.5102,0.41224 -1.0929,0.90939 -1.3106,1.5957 -0.1431,0.45155 0,0.87145 0.1836,1.23437 0.152,0.3053 0.3499,0.58536 0.5371,0.85938 -0.5135,0.3928 -0.5775,0.44352 -1.0957,0.83984 -0.082,0.063 -0.1902,0.18068 -0.2207,0.35352 -0.03,0.17283 0.037,0.33733 0.1,0.42578 0.126,0.1769 0.2304,0.2089 0.334,0.25781 0.2072,0.0978 0.4404,0.16043 0.6973,0.21094 0.2568,0.0505 0.5263,0.0831 0.7793,0.082 0.1265,-5.6e-4 0.2478,-0.007 0.3769,-0.0371 0.1292,-0.0299 0.2863,-0.0711 0.4336,-0.25391 0.3043,-0.37765 0.2604,-0.88182 0.1172,-1.25 -0.051,-0.13222 -0.1439,-0.24465 -0.2129,-0.36914 0.8951,-0.68468 1.63,-1.24884 2.0528,-1.57226 -0.014,0.17228 -0.051,0.33688 -0.02,0.51953 0.055,0.3202 0.2449,0.68915 0.6055,0.87109 0.4396,0.22173 0.9169,0.22029 1.3203,0.10743 0.4035,-0.11287 0.751,-0.32355 1.0469,-0.54493 0.5918,-0.44274 0.9941,-0.96093 0.9941,-0.96093 a 0.5,0.5 0 0 0 -0.088,-0.70313 0.5,0.5 0 0 0 -0.7011,0.0879 c 0,0 -0.339,0.42842 -0.8028,0.77539 -0.2319,0.17349 -0.4899,0.31879 -0.7187,0.38281 -0.2289,0.064 -0.4107,0.0592 -0.6016,-0.0371 -0.036,-0.0179 -0.047,-0.0202 -0.068,-0.14649 -0.022,-0.12632 -0.01,-0.33923 0.031,-0.55273 0.083,-0.427 0.2578,-0.83789 0.2578,-0.83789 a 0.50005,0.50005 0 0 0 -0.7617,-0.59766 c 0,0 -1.7445,1.33663 -3.0586,2.3418 -0.1664,-0.24645 -0.3395,-0.49653 -0.4394,-0.69727 -0.1299,-0.26079 -0.1434,-0.43021 -0.125,-0.48828 0.076,-0.23847 0.5301,-0.75209 0.9843,-1.11914 0.4543,-0.36705 0.877,-0.62695 0.877,-0.62695 a 0.5,0.5 0 0 0 0.1641,-0.6875 0.5,0.5 0 0 0 -0.6895,-0.16407 z m -1.0527,5.25586 c 0.017,0.0359 0.062,0.0952 0.074,0.12696 0.055,0.1409 0.033,0.14518 0.025,0.17578 -0.012,4.7e-4 -0.014,0.002 -0.027,0.002 -0.1099,4.9e-4 -0.2651,-0.0236 -0.4121,-0.0449 0.162,-0.12394 0.1799,-0.13737 0.3399,-0.25977 z"
           id="path7974" /><path
           style="color:#000000;fill:#ffffff;fill-opacity:1;stroke-width:1.34451;stroke-linecap:round;stroke-linejoin:round;-inkscape-stroke:none;paint-order:markers fill stroke"
           d="m 1166.9863,-142.76172 c 0,0 -1.3739,-0.27235 -2.5781,0.85352 -0.3602,0.33677 -0.6347,0.74107 -0.6992,1.21679 -0.032,0.23787 0,0.50751 0.1406,0.74024 0.1417,0.23273 0.3814,0.40203 0.6524,0.49219 0.5362,0.17856 1.042,-0.044 1.4492,-0.31641 0.4072,-0.27239 0.7701,-0.63297 1.084,-0.95508 0.1694,-0.17389 0.2503,-0.24628 0.3789,-0.375 0.086,0.30989 0.1083,0.67793 0.2968,0.86524 0.3155,0.3134 0.6858,0.44255 0.9414,0.52343 0.7908,0.25028 1.6492,-0.0278 2.375,-0.29101 0.7259,-0.2632 1.3067,-0.57031 1.3067,-0.57031 a 0.5,0.5 0 0 0 0.209,-0.67579 0.5,0.5 0 0 0 -0.6758,-0.20898 c 0,0 -0.5276,0.27724 -1.1797,0.51367 -0.6521,0.23643 -1.4415,0.37137 -1.7324,0.2793 -0.2108,-0.0667 -0.4124,-0.15347 -0.5391,-0.2793 -0.1267,-0.12583 -0.2251,-0.2819 -0.2051,-0.68945 0.01,-0.10293 0.01,-0.19919 -0.027,-0.32227 -0.033,-0.12308 -0.1321,-0.3112 -0.3281,-0.40039 -0.196,-0.0892 -0.3754,-0.0454 -0.4805,-0.004 -0.01,0.004 -0.013,0.008 -0.022,0.0117 a 0.5,0.5 0 0 0 -0.3672,-0.4082 z m -0.7265,0.96485 c 0.2614,-0.041 0.3812,-0.003 0.4277,0.008 -0.121,0.12481 -0.2332,0.22187 -0.3691,0.36133 -0.3002,0.308 -0.6325,0.6254 -0.9239,0.82031 -0.2913,0.1949 -0.4874,0.22876 -0.5761,0.19922 -0.1002,-0.0333 -0.1097,-0.0565 -0.1133,-0.0625 0,-0.006 -0.015,-0.0212 -0.01,-0.0859 0.018,-0.12949 0.1592,-0.40472 0.3906,-0.62109 0.4468,-0.41767 0.8643,-0.5712 1.17,-0.61914 z"
           id="path7976" /><ellipse
           style="fill:#ffffff;fill-opacity:1;stroke:none;stroke-width:2.55456;stroke-linecap:round;stroke-linejoin:round;stroke-dasharray:none;stroke-opacity:1;paint-order:markers fill stroke;stop-color:#000000"
           id="ellipse7978"
           cx="1162.5764"
           cy="-143.73712"
           rx="0.64687616"
           ry="0.65399963" /></g><g
         id="g8004"
         style="fill:#ffffff;fill-opacity:1;stroke-width:1.34451"><g
           id="g7986"
           style="fill:#ffffff;fill-opacity:1;stroke-width:1.34451"><path
             style="color:#000000;fill:#ffffff;fill-opacity:1;stroke-width:1.74786;stroke-linecap:round;stroke-linejoin:round;-inkscape-stroke:none;paint-order:markers fill stroke"
             d="m 1190.4679,21.28959 h -5.4633 m -3.0614,0 h -25.2075"
             id="path7982" /><path
             style="color:#000000;fill:#ffffff;fill-opacity:1;stroke-width:1.34451;stroke-linecap:round;stroke-linejoin:round;-inkscape-stroke:none;paint-order:markers fill stroke"
             d="m 1156.7363,20.638672 a 0.64999998,0.64999998 0 0 0 -0.6504,0.65039 0.64999998,0.64999998 0 0 0 0.6504,0.650391 h 25.2071 a 0.64999998,0.64999998 0 0 0 0.6504,-0.650391 0.64999998,0.64999998 0 0 0 -0.6504,-0.65039 z m 28.2676,0 a 0.64999998,0.64999998 0 0 0 -0.6484,0.65039 0.64999998,0.64999998 0 0 0 0.6484,0.650391 h 5.4649 a 0.64999998,0.64999998 0 0 0 0.6484,-0.650391 0.64999998,0.64999998 0 0 0 -0.6484,-0.65039 z"
             id="path7984" /></g><path
           style="color:#000000;fill:#ffffff;fill-opacity:1;stroke-width:1.34451;stroke-linecap:round;stroke-linejoin:round;-inkscape-stroke:none;paint-order:markers fill stroke"
           d="m 1157.2012,16.412109 c -0.4649,0.0126 -0.9128,0.19161 -1.2559,0.521485 -0.4148,0.398829 -0.6134,0.955316 -0.5644,1.517578 0.049,0.558877 0.3356,1.058042 0.7734,1.390625 0.3233,0.245616 0.6957,0.377582 1.0664,0.423828 0.3681,0.04592 0.7251,0.0059 1.0527,-0.07617 0.6523,-0.163379 1.178,-0.484018 1.6465,-0.75 0.6091,-0.34578 1.2081,-0.661563 1.8184,-0.876953 0.6084,-0.214706 1.2352,-0.329373 1.8262,-0.279297 0.9529,0.08075 1.8886,0.629265 2.4238,1.421875 a 0.64999998,0.64999998 0 0 0 0.9023,0.175781 0.64999998,0.64999998 0 0 0 0.1739,-0.902343 c -0.7649,-1.132703 -2.0288,-1.874843 -3.3907,-1.990235 -0.8284,-0.07019 -1.6323,0.08829 -2.3672,0.347656 -0.7329,0.258678 -1.3996,0.615198 -2.0293,0.972657 -0.4825,0.273947 -0.9117,0.518747 -1.3203,0.621093 -0.2027,0.05079 -0.3996,0.0667 -0.5742,0.04492 -0.1719,-0.02144 -0.3312,-0.08278 -0.4433,-0.167968 -0.1433,-0.108858 -0.2491,-0.298691 -0.2637,-0.466797 -0.014,-0.164721 0.059,-0.361795 0.1699,-0.46875 0.095,-0.09094 0.2486,-0.154354 0.3906,-0.158203 0.1443,-0.0039 0.3106,0.04966 0.4336,0.144531 0.047,0.03647 0.09,0.08013 0.127,0.126953 a 0.64999998,0.64999998 0 0 0 0.914,0.105469 0.64999998,0.64999998 0 0 0 0.1055,-0.91211 c -0.1031,-0.130264 -0.222,-0.248149 -0.3535,-0.349609 -0.3577,-0.275962 -0.7991,-0.428555 -1.2617,-0.416016 z"
           id="path7988" /><path
           style="color:#000000;fill:#ffffff;fill-opacity:1;stroke-width:1.34451;stroke-linecap:round;stroke-linejoin:round;-inkscape-stroke:none;paint-order:markers fill stroke"
           d="m 1171.5664,15.714844 a 0.50005,0.50005 0 0 0 -0.5,0.5 v 5.074218 a 0.50005,0.50005 0 0 0 0.5,0.5 h 4.0703 a 0.50005,0.50005 0 0 0 0.5,-0.5 v -5.074218 a 0.50005,0.50005 0 0 0 -0.5,-0.5 z m 0.5,1 h 3.0703 v 4.074218 h -3.0703 z"
           id="path7990" /><path
           style="color:#000000;fill:#ffffff;fill-opacity:1;stroke-width:1.34451;stroke-linecap:round;stroke-linejoin:round;-inkscape-stroke:none;paint-order:markers fill stroke"
           d="m 1171.0859,11.341797 c -0.5357,0.01536 -1.0612,0.166117 -1.5234,0.4375 -0.4622,0.271383 -0.8486,0.656819 -1.123,1.117187 -0.2745,0.460369 -0.4304,0.983901 -0.4493,1.519532 0,0.08992 0.052,0.170221 0.057,0.259765 -0.6386,-0.163948 -1.2964,-0.240481 -1.9512,-0.128906 -0.7807,0.13304 -1.5208,0.464009 -2.1406,0.957031 -0.6199,0.493022 -1.1088,1.138342 -1.4141,1.869141 a 0.64999998,0.64999998 0 0 0 0.3496,0.851562 0.64999998,0.64999998 0 0 0 0.8496,-0.349609 c 0.2195,-0.525477 0.5778,-0.999011 1.0235,-1.353516 0.4457,-0.354504 0.9894,-0.597697 1.5508,-0.693359 0.7683,-0.130924 1.5959,0.01753 2.2714,0.40625 a 0.65006498,0.65006498 0 0 0 0.9043,-0.855469 c -0.1413,-0.280243 -0.2103,-0.604316 -0.1992,-0.917968 0.011,-0.313653 0.103,-0.63081 0.2637,-0.900391 0.1607,-0.269581 0.3954,-0.501241 0.666,-0.660156 0.2706,-0.158916 0.5886,-0.250773 0.9023,-0.259766 0.3347,-0.0096 0.6548,0.08729 0.8497,0.255859 0.096,0.08351 0.171,0.189746 0.207,0.291016 0.035,0.09883 0.039,0.211049 0.016,0.292969 -0.022,0.07822 -0.078,0.159385 -0.1426,0.208984 -0.064,0.0496 -0.1571,0.08273 -0.2382,0.08399 a 0.64999998,0.64999998 0 0 0 -0.6407,0.660156 0.64999998,0.64999998 0 0 0 0.6602,0.638672 c 0.3684,-0.0057 0.722,-0.128487 1.0137,-0.353516 0.2917,-0.225029 0.5006,-0.535761 0.5996,-0.890625 0.1017,-0.364684 0.077,-0.738077 -0.043,-1.076172 -0.1192,-0.335657 -0.326,-0.61803 -0.5801,-0.83789 -0.5064,-0.438174 -1.146,-0.589244 -1.7383,-0.572266 z"
           id="path7992" /><path
           style="color:#000000;fill:#ffffff;fill-opacity:1;stroke-width:1.34451;stroke-linecap:round;stroke-linejoin:round;-inkscape-stroke:none;paint-order:markers fill stroke"
           d="m 1189.834,16.412109 c -0.4627,-0.01254 -0.904,0.140054 -1.2617,0.416016 -0.1316,0.10146 -0.2505,0.219345 -0.3535,0.349609 a 0.64999998,0.64999998 0 0 0 0.1054,0.91211 0.64999998,0.64999998 0 0 0 0.9141,-0.105469 c 0.037,-0.04683 0.08,-0.09048 0.1269,-0.126953 0.123,-0.09487 0.2894,-0.148442 0.4336,-0.144531 0.142,0.0038 0.2961,0.06727 0.3907,0.158203 0.1112,0.106955 0.1842,0.304029 0.1699,0.46875 -0.015,0.168106 -0.1204,0.357939 -0.2637,0.466797 -0.1121,0.08518 -0.2714,0.146524 -0.4434,0.167968 -0.1745,0.02178 -0.3714,0.0059 -0.5742,-0.04492 -0.4086,-0.102346 -0.8377,-0.347146 -1.3203,-0.621093 -0.6297,-0.357459 -1.2944,-0.713979 -2.0273,-0.972657 -0.7349,-0.259361 -1.5408,-0.417846 -2.3692,-0.347656 -1.3618,0.115392 -2.6258,0.857532 -3.3906,1.990235 a 0.64999998,0.64999998 0 0 0 0.1738,0.902343 0.64999998,0.64999998 0 0 0 0.9024,-0.175781 c 0.5352,-0.79261 1.4708,-1.341129 2.4238,-1.421875 0.591,-0.05008 1.2178,0.06459 1.8262,0.279297 0.6103,0.21539 1.2092,0.531173 1.8183,0.876953 0.4686,0.265982 0.9942,0.586621 1.6465,0.75 0.3277,0.08207 0.6847,0.122087 1.0528,0.07617 0.3707,-0.04625 0.7431,-0.178212 1.0664,-0.423828 0.4377,-0.332583 0.7247,-0.831748 0.7734,-1.390625 0.049,-0.562262 -0.1497,-1.118749 -0.5645,-1.517578 -0.343,-0.329875 -0.7909,-0.508884 -1.2558,-0.521485 z"
           id="path7994" /><path
           style="color:#000000;fill:#ffffff;fill-opacity:1;stroke-width:1.34451;stroke-linecap:round;stroke-linejoin:round;-inkscape-stroke:none;paint-order:markers fill stroke"
           d="m 1175.9492,11.341797 c -0.5922,-0.01698 -1.2318,0.134092 -1.7383,0.572266 -0.2541,0.21986 -0.4609,0.502233 -0.58,0.83789 -0.1201,0.338095 -0.1447,0.711488 -0.043,1.076172 0.099,0.354864 0.3079,0.665596 0.5996,0.890625 0.2917,0.225029 0.6453,0.347841 1.0137,0.353516 a 0.64999998,0.64999998 0 0 0 0.6601,-0.638672 0.64999998,0.64999998 0 0 0 -0.6406,-0.660156 c -0.081,-0.0013 -0.174,-0.03439 -0.2383,-0.08399 -0.064,-0.0496 -0.1207,-0.130767 -0.1426,-0.208984 -0.023,-0.08192 -0.017,-0.194136 0.018,-0.292969 0.036,-0.10127 0.1086,-0.207505 0.2051,-0.291016 0.1948,-0.168568 0.5149,-0.265453 0.8496,-0.255859 0.3137,0.009 0.6317,0.10085 0.9024,0.259766 0.2706,0.158915 0.5053,0.390575 0.666,0.660156 0.1607,0.269581 0.2526,0.586738 0.2636,0.900391 0.011,0.313652 -0.058,0.637725 -0.1992,0.917968 a 0.65006498,0.65006498 0 0 0 0.9043,0.855469 c 0.6756,-0.388717 1.5032,-0.537174 2.2715,-0.40625 0.5614,0.09566 1.1051,0.338855 1.5508,0.693359 0.4457,0.354505 0.8039,0.828039 1.0234,1.353516 a 0.64999998,0.64999998 0 0 0 0.8496,0.349609 0.64999998,0.64999998 0 0 0 0.3496,-0.851562 c -0.3052,-0.730799 -0.7942,-1.376119 -1.414,-1.869141 -0.6199,-0.493022 -1.3599,-0.823991 -2.1406,-0.957031 -0.6553,-0.111656 -1.3123,-0.03535 -1.9512,0.128906 0,-0.08954 0.06,-0.169848 0.057,-0.259765 -0.019,-0.535631 -0.1748,-1.059163 -0.4492,-1.519532 -0.2744,-0.460368 -0.6609,-0.845804 -1.123,-1.117187 -0.4622,-0.271383 -0.9877,-0.422142 -1.5235,-0.4375 z"
           id="path7996" /><path
           style="color:#000000;fill:#ffffff;fill-opacity:1;stroke-width:1.34451;stroke-linecap:round;stroke-linejoin:round;-inkscape-stroke:none;paint-order:markers fill stroke"
           d="m 1171.4941,17.683594 c -0.5917,-0.0673 -1.1935,0.02643 -1.7363,0.271484 -0.561,0.253274 -1.0415,0.660944 -1.3848,1.171875 -0.3432,0.510931 -0.5382,1.109509 -0.5605,1.724609 a 0.64999998,0.64999998 0 0 0 0.627,0.673829 0.64999998,0.64999998 0 0 0 0.6718,-0.626954 c 0.013,-0.368685 0.1342,-0.740627 0.3399,-1.046875 0.2057,-0.306247 0.5055,-0.559127 0.8418,-0.710937 0.3256,-0.147 0.6997,-0.206387 1.0547,-0.166016 a 0.64999998,0.64999998 0 0 0 0.7187,-0.572265 0.64999998,0.64999998 0 0 0 -0.5723,-0.71875 z"
           id="path7998" /><path
           style="color:#000000;fill:#ffffff;fill-opacity:1;stroke-width:1.34451;stroke-linecap:round;stroke-linejoin:round;-inkscape-stroke:none;paint-order:markers fill stroke"
           d="m 1175.7266,17.683594 a 0.64999998,0.64999998 0 0 0 -0.5723,0.71875 0.64999998,0.64999998 0 0 0 0.7207,0.572265 c 0.355,-0.04037 0.7271,0.01902 1.0527,0.166016 0.3363,0.15181 0.6361,0.40469 0.8418,0.710937 0.2058,0.306248 0.3265,0.67819 0.3399,1.046875 a 0.64999998,0.64999998 0 0 0 0.6738,0.626954 0.64999998,0.64999998 0 0 0 0.625,-0.673829 c -0.022,-0.6151 -0.2154,-1.213678 -0.5586,-1.724609 -0.3432,-0.510931 -0.8257,-0.918601 -1.3867,-1.171875 -0.5428,-0.245053 -1.1446,-0.338785 -1.7363,-0.271484 z"
           id="path8000" /><path
           style="color:#000000;fill:#ffffff;fill-opacity:1;stroke-width:1.34451;stroke-linecap:round;stroke-linejoin:round;-inkscape-stroke:none;paint-order:markers fill stroke"
           d="m 1173.5176,9.0546875 a 0.65006498,0.65006498 0 0 0 -0.5215,0.2617188 l -1.5859,2.1249997 a 0.64999998,0.64999998 0 0 0 0.1328,0.910157 0.64999998,0.64999998 0 0 0 0.9082,-0.132813 l 1.0664,-1.427734 1.0664,1.427734 a 0.64999998,0.64999998 0 0 0 0.9082,0.132813 0.64999998,0.64999998 0 0 0 0.1328,-0.910157 l -1.5859,-2.1249997 a 0.65006498,0.65006498 0 0 0 -0.5215,-0.2617188 z"
           id="path8002" /></g><path
         id="path8006"
         style="fill:#ffffff;fill-opacity:1;stroke:none;stroke-width:1.42983;stroke-linecap:round;stroke-linejoin:round;stroke-dasharray:none;stroke-opacity:1;paint-order:markers fill stroke;stop-color:#000000"
         d="m 1185.0615,51.977189 a 5.037087,5.037087 0 0 0 -5.0369,5.036902 5.037087,5.037087 0 0 0 5.0369,5.037419 5.037087,5.037087 0 0 0 5.0369,-5.037419 5.037087,5.037087 0 0 0 -5.0369,-5.036902 z m -1.2542,1.702739 c 0.167,0 0.3106,0.01904 0.431,0.05736 0.1205,0.03832 0.219,0.09316 0.2956,0.164331 0.079,0.06844 0.137,0.153482 0.1726,0.254765 0.038,0.09855 0.057,0.21101 0.057,0.336931 0,0.104021 -0.02,0.203914 -0.062,0.299723 -0.041,0.09581 -0.094,0.188719 -0.1602,0.279053 -0.066,0.0876 -0.1396,0.172643 -0.2217,0.254764 -0.082,0.08212 -0.163,0.159668 -0.2424,0.233578 -0.041,0.03832 -0.086,0.0825 -0.1354,0.131775 -0.047,0.04654 -0.092,0.09439 -0.1354,0.14366 -0.044,0.04927 -0.084,0.09573 -0.1193,0.139527 -0.033,0.04106 -0.053,0.07546 -0.062,0.102836 h 1.2237 v 0.513147 h -1.8971 c -0.01,-0.03011 -0.01,-0.0687 -0.01,-0.115239 v -0.09819 c 0,-0.131395 0.021,-0.252239 0.062,-0.361735 0.044,-0.109496 0.1001,-0.210786 0.1685,-0.303857 0.068,-0.09581 0.1451,-0.184529 0.23,-0.266651 0.088,-0.08212 0.174,-0.164374 0.2589,-0.246496 0.066,-0.06296 0.127,-0.121469 0.1845,-0.176217 0.057,-0.05748 0.1081,-0.11232 0.1519,-0.164331 0.044,-0.05475 0.078,-0.108186 0.1028,-0.160197 0.025,-0.05475 0.037,-0.109583 0.037,-0.164331 0,-0.120445 -0.034,-0.205492 -0.1023,-0.254765 -0.068,-0.04927 -0.1535,-0.0739 -0.2548,-0.0739 -0.074,0 -0.1436,0.01257 -0.2093,0.03721 -0.063,0.0219 -0.122,0.04932 -0.1767,0.08217 -0.052,0.03011 -0.097,0.0612 -0.1354,0.09405 -0.038,0.03011 -0.067,0.05525 -0.086,0.07441 l -0.3038,-0.427364 c 0.1204,-0.112234 0.2603,-0.203747 0.419,-0.274919 0.1616,-0.07391 0.3339,-0.111104 0.5173,-0.111104 z m 2.4185,0 c 0.3203,0 0.5707,0.128707 0.7514,0.386023 0.1834,0.254577 0.2749,0.620266 0.2749,1.096573 0,0.479045 -0.091,0.84701 -0.2749,1.104326 -0.1807,0.254578 -0.4311,0.381889 -0.7514,0.381889 -0.3203,0 -0.5721,-0.127311 -0.7555,-0.381889 -0.1807,-0.257316 -0.2713,-0.625281 -0.2713,-1.104326 0,-0.238153 0.023,-0.449113 0.07,-0.632519 0.049,-0.183406 0.1195,-0.338134 0.2098,-0.464054 0.09,-0.125921 0.1981,-0.221624 0.3241,-0.287321 0.1259,-0.0657 0.2672,-0.0987 0.4232,-0.0987 z m 0,0.525549 c -0.077,0 -0.1413,0.02323 -0.1933,0.06976 -0.049,0.04654 -0.09,0.112545 -0.123,0.197404 -0.03,0.08486 -0.052,0.186149 -0.066,0.303857 -0.014,0.114971 -0.021,0.243679 -0.021,0.386023 0,0.142345 0.01,0.272449 0.021,0.390157 0.014,0.117709 0.035,0.218999 0.066,0.303858 0.033,0.08486 0.074,0.150351 0.123,0.196887 0.052,0.04654 0.1166,0.06976 0.1933,0.06976 0.077,0 0.1407,-0.02323 0.1927,-0.06976 0.052,-0.04654 0.093,-0.112028 0.1235,-0.196887 0.03,-0.08486 0.052,-0.186149 0.066,-0.303858 0.014,-0.117708 0.02,-0.247812 0.02,-0.390157 0,-0.142344 -0.01,-0.271052 -0.02,-0.386023 -0.014,-0.117708 -0.035,-0.218998 -0.066,-0.303857 -0.03,-0.08486 -0.072,-0.150868 -0.1235,-0.197404 -0.052,-0.04654 -0.1161,-0.06976 -0.1927,-0.06976 z m -2.4185,3.169832 c 0.167,0 0.3106,0.01955 0.431,0.05788 0.1205,0.03832 0.219,0.09316 0.2956,0.164331 0.079,0.06844 0.137,0.152964 0.1726,0.254248 0.038,0.09855 0.057,0.21101 0.057,0.33693 0,0.104021 -0.02,0.203915 -0.062,0.299724 -0.041,0.09581 -0.094,0.188718 -0.1602,0.279052 -0.066,0.0876 -0.1396,0.172643 -0.2217,0.254765 -0.082,0.08212 -0.163,0.160185 -0.2424,0.234094 -0.041,0.03832 -0.086,0.08198 -0.1354,0.131259 -0.047,0.04653 -0.092,0.09439 -0.1354,0.14366 -0.044,0.04927 -0.084,0.09573 -0.1193,0.139526 -0.033,0.04106 -0.053,0.07546 -0.062,0.102836 h 1.2237 v 0.513147 h -1.8971 c -0.01,-0.03011 -0.01,-0.06819 -0.01,-0.114721 v -0.0987 c 0,-0.131395 0.021,-0.251723 0.062,-0.361218 0.044,-0.109496 0.1001,-0.210786 0.1685,-0.303858 0.068,-0.09581 0.1451,-0.185045 0.23,-0.267167 0.088,-0.08212 0.174,-0.164375 0.2589,-0.246497 0.066,-0.06296 0.127,-0.121468 0.1845,-0.176216 0.057,-0.05749 0.1081,-0.112321 0.1519,-0.164331 0.044,-0.05475 0.078,-0.108187 0.1028,-0.160197 0.025,-0.05475 0.037,-0.109583 0.037,-0.164331 0,-0.120446 -0.034,-0.204975 -0.1023,-0.254248 -0.068,-0.04927 -0.1535,-0.0739 -0.2548,-0.0739 -0.074,0 -0.1436,0.01205 -0.2093,0.03669 -0.063,0.0219 -0.122,0.04932 -0.1767,0.08217 -0.052,0.03011 -0.097,0.06172 -0.1354,0.09457 -0.038,0.03011 -0.067,0.05474 -0.086,0.0739 l -0.3038,-0.427364 c 0.1204,-0.112233 0.2603,-0.203746 0.419,-0.274918 0.1616,-0.07391 0.3339,-0.111105 0.5173,-0.111105 z m 2.2418,0 c 0.1669,0 0.3105,0.02095 0.4309,0.06201 0.1232,0.03832 0.2245,0.09404 0.3039,0.167948 0.079,0.07117 0.1384,0.156219 0.1767,0.254765 0.038,0.09581 0.057,0.201289 0.057,0.31626 0,0.112233 -0.031,0.221904 -0.094,0.328662 -0.063,0.104021 -0.148,0.182964 -0.2547,0.237712 0.1478,0.06022 0.2611,0.150855 0.3405,0.271301 0.082,0.117708 0.1235,0.259866 0.1235,0.426847 0,0.131395 -0.022,0.253119 -0.066,0.365353 -0.044,0.109496 -0.1126,0.205715 -0.2057,0.287837 -0.093,0.07939 -0.212,0.142084 -0.3571,0.188619 -0.1423,0.0438 -0.3119,0.06563 -0.509,0.06563 -0.074,0 -0.1519,-0.0056 -0.2341,-0.01654 -0.082,-0.0082 -0.1616,-0.02027 -0.2382,-0.03669 -0.077,-0.01643 -0.1463,-0.03407 -0.2093,-0.05323 -0.063,-0.01916 -0.1122,-0.03732 -0.1478,-0.05374 l 0.1189,-0.509012 c 0.071,0.03011 0.1618,0.06311 0.2713,0.0987 0.1122,0.03285 0.2502,0.04909 0.4144,0.04909 0.1889,0 0.3274,-0.03528 0.415,-0.106453 0.088,-0.07117 0.1312,-0.167393 0.1312,-0.287838 0,-0.07391 -0.016,-0.135212 -0.049,-0.184485 -0.03,-0.05201 -0.073,-0.0934 -0.1276,-0.123507 -0.055,-0.03285 -0.1202,-0.05468 -0.1969,-0.06563 -0.074,-0.01369 -0.1533,-0.02015 -0.2382,-0.02015 h -0.2382 V 58.54578 h 0.2713 c 0.06,0 0.1173,-0.0056 0.172,-0.01654 0.057,-0.01095 0.1082,-0.02859 0.152,-0.05323 0.044,-0.02737 0.078,-0.06317 0.1028,-0.10697 0.027,-0.04654 0.041,-0.103648 0.041,-0.172082 0,-0.05201 -0.011,-0.09759 -0.033,-0.135909 -0.022,-0.03832 -0.051,-0.06941 -0.086,-0.09405 -0.033,-0.02464 -0.072,-0.04279 -0.1189,-0.05374 -0.044,-0.01369 -0.089,-0.02015 -0.1359,-0.02015 -0.1177,0 -0.2268,0.01764 -0.3281,0.05323 -0.099,0.03559 -0.1892,0.07925 -0.2713,0.131258 l -0.2176,-0.447518 c 0.044,-0.02737 0.094,-0.05619 0.1519,-0.0863 0.06,-0.03011 0.1263,-0.05753 0.1974,-0.08216 0.071,-0.02464 0.1465,-0.04507 0.2259,-0.0615 0.082,-0.01642 0.168,-0.02481 0.2584,-0.02481 z" /></g></g></svg>
